<?xml version="1.0" encoding="UTF-8"?>
<svg width="16px" height="16px" viewBox="0 0 16 16" version="1.1" xmlns="http://www.w3.org/2000/svg" xmlns:xlink="http://www.w3.org/1999/xlink">
    <!-- Generator: Sketch 50.2 (55047) - http://www.bohemiancoding.com/sketch -->
    <title>icon</title>
    <desc>Created with Sketch.</desc>
    <defs></defs>
    <g id="Page-1" stroke="none" stroke-width="1" fill="none" fill-rule="evenodd">
        <g id="snapshot-report" transform="translate(-31.000000, -1028.000000)" fill="#9E4BFF">
            <g id="listings" transform="translate(0.000000, 819.000000)">
                <g id="business-name" transform="translate(30.000000, 209.000000)">
                    <path d="M14.4539198,6.29 C14.0029198,6.75 13.4039198,7 12.7759198,7 C12.1479198,7 11.5489198,6.75 11.0969198,6.29 L10.8129198,6 L10.5279198,6.29 C10.0769198,6.75 9.47791981,7 8.84991981,7 C8.22191981,7 7.62291981,6.75 7.17191981,6.29 L6.88691981,6 L6.60191981,6.29 C6.15091981,6.75 5.55191981,7 4.92391981,7 C4.29591981,7 3.69691981,6.75 3.24591981,6.29 L2.96091981,6 L3.41191981,5.08 L4.92391981,2 L12.7759198,2 L14.2869198,5.08 L14.7389198,6 L14.4539198,6.29 Z M13.7569198,14 L10.8129198,14 L10.8129198,10 L6.88691981,10 L6.88691981,14 L3.94291981,14 L3.94291981,8.89 C4.25691981,8.96 4.58991981,9 4.92391981,9 C5.62091981,9 6.28791981,8.83 6.88691981,8.52 C7.48591981,8.83 8.15291981,9 8.84991981,9 C9.54691981,9 10.2139198,8.83 10.8129198,8.52 C11.4109198,8.83 12.0789198,9 12.7759198,9 C13.1089198,9 13.4429198,8.96 13.7569198,8.89 L13.7569198,14 Z M16.4949198,5.11 L14.5319198,1.11 C14.1989198,0.43 13.5219198,0 12.7759198,0 L4.92391981,0 C4.17791981,0 3.50091981,0.43 3.16691981,1.11 L1.20391981,5.11 C0.830919806,5.88 0.977919806,6.81 1.57691981,7.41 L1.86191981,7.7 C1.90091981,7.74 1.93991981,7.78 1.97991981,7.81 L1.97991981,14 C1.97991981,15.1 2.86291981,16 3.94291981,16 L13.7569198,16 C14.8369198,16 15.7199198,15.1 15.7199198,14 L15.7199198,7.81 C15.7589198,7.78 15.7989198,7.74 15.8379198,7.7 L16.1219198,7.41 C16.7209198,6.81 16.8679198,5.88 16.4949198,5.11 Z" id="icon"></path>
                </g>
            </g>
        </g>
    </g>
</svg>