<?xml version="1.0" encoding="UTF-8"?>
<svg width="16px" height="16px" viewBox="0 0 16 16" version="1.1" xmlns="http://www.w3.org/2000/svg" xmlns:xlink="http://www.w3.org/1999/xlink">
    <!-- Generator: Sketch 50.2 (55047) - http://www.bohemiancoding.com/sketch -->
    <title>Fill 1</title>
    <desc>Created with Sketch.</desc>
    <defs></defs>
    <g id="Page-1" stroke="none" stroke-width="1" fill="none" fill-rule="evenodd">
        <g id="snapshot-report" transform="translate(-541.000000, -1028.000000)" fill="#0CDB64">
            <g id="listings" transform="translate(0.000000, 819.000000)">
                <g id="phone-number" transform="translate(540.000000, 209.000000)">
                    <path d="M14.233,13.32 C13.243,13.76 12.153,14 11.002,14 C8.932,14 7.041,13.21 5.621,11.92 C5.521,11.83 5.431,11.74 5.341,11.65 C4.881,11.2 4.481,10.69 4.151,10.14 C4.041,9.96 3.941,9.77 3.851,9.58 C3.301,8.5 3.001,7.29 3.001,6 C3.001,4.85 3.241,3.76 3.681,2.77 L6.001,2 L7.001,5 L5.001,6 C5.001,7.66 5.671,9.16 6.762,10.24 C7.842,11.33 9.342,12 11.002,12 L12.003,10 L15.003,11 L14.233,13.32 Z M15.636,9.103 L12.635,8.103 C12.426,8.033 12.213,8 12.003,8 C11.263,8 10.56,8.412 10.213,9.106 L9.849,9.833 C9.223,9.646 8.652,9.306 8.182,8.832 C7.7,8.354 7.357,7.78 7.169,7.153 L7.896,6.789 C8.787,6.344 9.214,5.312 8.899,4.368 L7.899,1.368 C7.62,0.53 6.839,0 6.002,0 C5.793,0 5.58,0.033 5.371,0.102 L3.051,0.872 C2.516,1.049 2.081,1.444 1.853,1.958 C1.287,3.231 1,4.591 1,6 C1,7.577 1.355,9.078 2.056,10.462 C2.179,10.72 2.309,10.963 2.444,11.183 C2.857,11.871 3.364,12.514 3.943,13.08 C4.04,13.178 4.156,13.292 4.283,13.406 C6.122,15.077 8.511,16 11.002,16 C12.412,16 13.773,15.713 15.045,15.148 C15.56,14.919 15.954,14.484 16.132,13.95 L16.902,11.63 C17.249,10.583 16.683,9.452 15.636,9.103 Z" id="Fill-1"></path>
                </g>
            </g>
        </g>
    </g>
</svg>