<?xml version="1.0" encoding="UTF-8"?>
<svg width="18px" height="17px" viewBox="0 0 18 17" version="1.1" xmlns="http://www.w3.org/2000/svg" xmlns:xlink="http://www.w3.org/1999/xlink">
    <!-- Generator: Sketch 50.2 (55047) - http://www.bohemiancoding.com/sketch -->
    <title>Group</title>
    <desc>Created with Sketch.</desc>
    <defs></defs>
    <g id="Page-1" stroke="none" stroke-width="1" fill="none" fill-rule="evenodd">
        <g id="Group" transform="translate(1.000000, 1.000000)">
            <path d="M3.68647155,15.0043824 C3.47120783,15.0047744 3.26119699,14.9379986 3.08577381,14.8133824 C2.74741625,14.5726175 2.59484035,14.1469385 2.70332958,13.7463824 L3.86668088,9.50338239 L0.378629314,6.74138239 C0.0513304919,6.48488606 -0.0803123904,6.05124892 0.0492467184,5.65638239 C0.182319016,5.26026137 0.545436509,4.98655124 0.963308451,4.96738239 L5.4475171,4.73938239 L7.04937775,0.63938239 C7.20524747,0.253034469 7.5804569,0 7.99747902,0 C8.41450115,0 8.78971057,0.253034469 8.9455803,0.63938239 L10.5534479,4.73938239 L15.0366554,4.96738239 C15.4544269,4.98682934 15.8174047,5.26043416 15.9507171,5.65638239 C16.0801901,6.05104318 15.9490146,6.48445801 15.6223357,6.74138239 L12.1402911,9.49938239 L13.3046436,13.7423824 C13.413228,14.1431636 13.2601725,14.5690659 12.9211982,14.8093824 C12.5795086,15.0520185 12.1247624,15.063878 11.770862,14.8393824 L8.00448716,12.4393824 L4.23811231,14.8393824 C4.07386205,14.9460487 3.88238277,15.0033216 3.68647155,15.0043824 L3.68647155,15.0043824 L3.68647155,15.0043824 Z" id="Star-Half-Icon" stroke="#FFB122" fill="#FFB122"></path>
            <path d="M8.00448716,10.2583824 C8.20030704,10.258283 8.39206727,10.3141481 8.55712909,10.4193824 L10.6535642,11.7533824 L10.006813,9.39938239 C9.9022452,9.01640478 10.0370636,8.60808812 10.3492107,8.36238239 L12.2834574,6.83138239 L9.7955676,6.70438239 C9.39767201,6.68573538 9.04754829,6.43616103 8.90052797,6.06638239 L7.99948135,3.77938239 L7.99948135,10.2633824 L8.00448716,10.2583824 L8.00448716,10.2583824 Z" id="Star-Half-Icon" stroke="#FFFFFF" fill="#FFFFFF"></path>
        </g>
    </g>
</svg>