<?xml version="1.0" encoding="UTF-8"?>
<svg width="14px" height="14px" viewBox="0 0 14 14" version="1.1" xmlns="http://www.w3.org/2000/svg" xmlns:xlink="http://www.w3.org/1999/xlink">
    <!-- Generator: Sketch 50.2 (55047) - http://www.bohemiancoding.com/sketch -->
    <title>Fill 1</title>
    <desc>Created with Sketch.</desc>
    <defs></defs>
    <g id="Page-1" stroke="none" stroke-width="1" fill="none" fill-rule="evenodd">
        <g id="snapshot-report" transform="translate(-474.000000, -443.000000)" fill="#FFA815">
            <g id="info" transform="translate(149.000000, 443.000000)">
                <g id="web" transform="translate(325.000000, 0.000000)">
                    <path d="M10.5,6.7725 C10.49125,6.335 10.47375,5.8975 10.43,5.46 C10.3775,4.83875 10.29,4.22625 10.15875,3.64875 C10.08,3.28125 9.98375,2.93125 9.86125,2.59875 C10.36,2.9225 10.7975,3.325 11.1475,3.7975 C11.6375,4.41875 11.9875,5.15375 12.145,5.95 C12.1625,6.04625 12.18,6.15125 12.18875,6.2475 C12.0225,6.4575 11.40125,6.64125 10.5,6.7725 M9.86125,11.40125 C10.15875,10.56125 10.3425,9.58125 10.43,8.56625 C11.10375,8.47875 11.655,8.365 12.10125,8.21625 C11.795,9.54625 10.9725,10.675 9.86125,11.40125 M7,7 C6.3875,7 5.80125,6.9825 5.25,6.9475 C5.25,6.37 5.285,5.81 5.34625,5.29375 C5.41625,4.6375 5.53875,4.03375 5.69625,3.52625 C6.01125,2.4325 6.48375,1.75 7,1.75 C7.51625,1.75 7.98875,2.4325 8.30375,3.52625 C8.46125,4.03375 8.58375,4.6375 8.65375,5.29375 C8.715,5.81 8.75,6.37 8.75,6.9475 C8.19875,6.9825 7.6125,7 7,7 M7,12.25 C6.23875,12.25 5.5825,10.77125 5.34625,8.715 C5.85375,8.74125 6.39625,8.75 7,8.75 C7.60375,8.75 8.14625,8.74125 8.65375,8.715 C8.4175,10.77125 7.76125,12.25 7,12.25 M3.84125,3.64875 C3.71,4.22625 3.6225,4.83875 3.57,5.46 C3.52625,5.8975 3.50875,6.335 3.5,6.7725 C2.59875,6.64125 1.9775,6.4575 1.81125,6.2475 C1.82,6.15125 1.8375,6.04625 1.855,5.95 C2.0125,5.15375 2.3625,4.41875 2.8525,3.7975 C3.2025,3.325 3.64,2.9225 4.13875,2.59875 C4.01625,2.93125 3.92,3.28125 3.84125,3.64875 M1.89875,8.21625 C2.345,8.365 2.89625,8.47875 3.57,8.56625 C3.6575,9.58125 3.84125,10.56125 4.13875,11.40125 C3.0275,10.675 2.205,9.54625 1.89875,8.21625 M13.9825,6.46625 C13.93875,5.97625 13.85125,5.50375 13.72,5.0575 C12.8975,2.21375 10.31625,0.105 7.23625,0.00875 C7.1575,0 7.07875,0 7,0 C6.92125,0 6.8425,0 6.76375,0.00875 C3.68375,0.105 1.1025,2.21375 0.28,5.0575 C0.14875,5.50375 0.06125,5.97625 0.0175,6.46625 C0.00875,6.64125 0,6.81625 0,7 C0,10.78 3.01,13.86875 6.76375,13.99125 C6.8425,14 6.92125,14 7,14 C7.07875,14 7.1575,14 7.23625,13.99125 C10.99,13.86875 14,10.78 14,7 C14,6.81625 13.99125,6.64125 13.9825,6.46625" id="Fill-1"></path>
                </g>
            </g>
        </g>
    </g>
</svg>