<?xml version="1.0" encoding="UTF-8"?>
<svg width="16px" height="14px" viewBox="0 0 16 14" version="1.1" xmlns="http://www.w3.org/2000/svg" xmlns:xlink="http://www.w3.org/1999/xlink">
    <!-- Generator: Sketch 50.2 (55047) - http://www.bohemiancoding.com/sketch -->
    <title>Fill 1</title>
    <desc>Created with Sketch.</desc>
    <defs></defs>
    <g id="Page-1" stroke="none" stroke-width="1" fill="none" fill-rule="evenodd">
        <g id="snapshot-report" transform="translate(-304.000000, -1133.000000)" fill="#14E075">
            <g id="listings" transform="translate(0.000000, 819.000000)">
                <g id="google" transform="translate(30.000000, 285.000000)">
                    <path d="M288.0215,29.3963424 L279.8175,40.3833424 L275.6855,36.2333424 C275.3005,35.8453424 274.6755,35.8453424 274.2895,36.2333424 C273.9035,36.6203424 273.9035,37.2483424 274.2895,37.6353424 L279.2265,42.5943424 C279.4125,42.7813424 279.6635,42.8853424 279.9245,42.8853424 C279.9475,42.8853424 279.9715,42.8843424 279.9945,42.8823424 C280.2805,42.8623424 280.5425,42.7183424 280.7145,42.4883424 L289.6015,30.5863424 C289.9295,30.1483424 289.8405,29.5263424 289.4035,29.1983424 C288.9675,28.8693424 288.3495,28.9593424 288.0215,29.3963424 Z" id="Fill-1"></path>
                </g>
            </g>
        </g>
    </g>
</svg>