<?xml version="1.0" encoding="UTF-8"?>
<svg width="16px" height="14px" viewBox="0 0 16 14" version="1.1" xmlns="http://www.w3.org/2000/svg" xmlns:xlink="http://www.w3.org/1999/xlink">
    <!-- Generator: Sketch 51.1 (57501) - http://www.bohemiancoding.com/sketch -->
    <title>tablet</title>
    <desc>Created with Sketch.</desc>
    <defs></defs>
    <g id="Page-1" stroke="none" stroke-width="1" fill="none" fill-rule="evenodd">
        <g id="dashboard" transform="translate(-876.000000, -1819.000000)" fill="#B0B8BC">
            <g id="website-visitors" transform="translate(280.000000, 1538.000000)">
                <g id="r1" transform="translate(40.000000, 112.000000)">
                    <g id="visitors-by-device" transform="translate(555.000000, 15.000000)">
                        <g id="stats" transform="translate(1.000000, 60.000000)">
                            <g id="tablet" transform="translate(0.000000, 92.000000)">
                                <path d="M8,13 C8.552,13 9,12.552 9,12 C9,11.448 8.552,11 8,11 C7.448,11 7,11.448 7,12 C7,12.552 7.448,13 8,13 Z M2,14 L14,14 L14,4 L2,4 L2,14 Z M14,2 L2,2 C0.895,2 0,2.895 0,4 L0,14 C0,15.104 0.895,16 2,16 L14,16 C15.105,16 16,15.104 16,14 L16,4 C16,2.895 15.105,2 14,2 Z"></path>
                            </g>
                        </g>
                    </g>
                </g>
            </g>
        </g>
    </g>
</svg>