<?xml version="1.0" encoding="UTF-8"?>
<svg width="32px" height="32px" viewBox="0 0 32 32" version="1.1" xmlns="http://www.w3.org/2000/svg" xmlns:xlink="http://www.w3.org/1999/xlink">
    <!-- Generator: Sketch 49 (51002) - http://www.bohemiancoding.com/sketch -->
    <title>Group</title>
    <desc>Created with Sketch.</desc>
    <defs></defs>
    <g id="Page-1" stroke="none" stroke-width="1" fill="none" fill-rule="evenodd">
        <g id="Artboard" transform="translate(-450.000000, -473.000000)" fill="#188BF6">
            <g id="1">
                <g id="Sources" transform="translate(329.000000, 436.000000)">
                    <g id="Group" transform="translate(120.000000, 36.000000)">
                        <path d="M17.000034,1.000055 C25.836566,1.000055 32.999992,8.16347 32.999992,16.999955 C32.999992,25.836615 25.836566,33.00003 17.000034,33.00003 C8.163434,33.00003 1.000008,25.836615 1.000008,16.999955 C1.000008,8.16347 8.163434,1.000055 17.000034,1.000055 Z" id="Ellipse-4-copy-3" opacity="0.1"></path>
                        <path d="M18,16 L25,16 L25,18 L18,18 L18,25 L16,25 L16,18 L9,18 L9,16 L16,16 L16,9 L18,9 L18,16 Z" id="Combined-Shape"></path>
                    </g>
                </g>
            </g>
        </g>
    </g>
</svg>