<?xml version="1.0" encoding="UTF-8"?>
<svg width="16px" height="16px" viewBox="0 0 16 16" version="1.1" xmlns="http://www.w3.org/2000/svg" xmlns:xlink="http://www.w3.org/1999/xlink">
    <!-- Generator: Sketch 50.2 (55047) - http://www.bohemiancoding.com/sketch -->
    <title>smiley</title>
    <desc>Created with Sketch.</desc>
    <defs></defs>
    <g id="Page-1" stroke="none" stroke-width="1" fill="none" fill-rule="evenodd">
        <g id="conversations4" transform="translate(-1221.000000, -871.000000)" fill="#899094">
            <g id="chat" transform="translate(621.000000, 165.000000)">
                <g id="reply" transform="translate(10.000000, 678.000000)">
                    <path d="M600.227,37 C599.947,37 599.68,37.117 599.495,37.326 C599.128,37.74 598.597,38 598,38 C597.404,38 596.873,37.74 596.506,37.326 C596.321,37.117 596.053,37 595.774,37 C594.902,37 594.449,38.035 595.033,38.682 C595.765,39.493 596.825,40 598,40 C599.176,40 600.236,39.493 600.968,38.682 C601.552,38.035 601.099,37 600.227,37 M601,34 C600.448,34 600,34.448 600,35 C600,35.552 600.448,36 601,36 C601.553,36 602,35.552 602,35 C602,34.448 601.553,34 601,34 M596,35 C596,34.448 595.553,34 595,34 C594.448,34 594,34.448 594,35 C594,35.552 594.448,36 595,36 C595.553,36 596,35.552 596,35 M598,42 C594.69,42 592,39.31 592,36 C592,32.69 594.69,30 598,30 C601.31,30 604,32.69 604,36 C604,39.31 601.31,42 598,42 M598,28 C593.58,28 590,31.58 590,36 C590,40.42 593.58,44 598,44 C602.42,44 606,40.42 606,36 C606,31.58 602.42,28 598,28" id="smiley"></path>
                </g>
            </g>
        </g>
    </g>
</svg>