<?xml version="1.0" encoding="UTF-8"?>
<svg width="32px" height="32px" viewBox="0 0 32 32" version="1.1" xmlns="http://www.w3.org/2000/svg" xmlns:xlink="http://www.w3.org/1999/xlink">
    <!-- Generator: Sketch 49 (51002) - http://www.bohemiancoding.com/sketch -->
    <title>t</title>
    <desc>Created with Sketch.</desc>
    <defs></defs>
    <g id="Page-1" stroke="none" stroke-width="1" fill="none" fill-rule="evenodd">
        <g id="Artboard" transform="translate(-410.000000, -473.000000)">
            <g id="1">
                <g id="Sources" transform="translate(329.000000, 443.000000)">
                    <g id="t" transform="translate(79.000000, 29.000000)">
                        <path d="M18.00001,1.000055 C26.836565,1.000055 33.99998,8.16347 33.99998,16.999955 C33.99998,25.836615 26.836565,33.00003 18.00001,33.00003 C9.16342,33.00003 1.99997,25.836615 1.99997,16.999955 C1.99997,8.16347 9.16342,1.000055 18.00001,1.000055 Z" id="Ellipse-4-copy-2" fill="#1DA1F2"></path>
                        <path d="M24.001568,13.185728 C23.560128,13.38722 23.085408,13.522592 22.587152,13.58318 C23.095712,13.271552 23.486064,12.77708 23.67,12.187244 C23.19416,12.476648 22.667328,12.686492 22.10616,12.800072 C21.657104,12.309488 21.016976,12.003068 20.308784,12.003068 C18.9488,12.003068 17.846208,13.132748 17.846208,14.525852 C17.846208,14.723456 17.867936,14.916428 17.909904,15.100604 C15.863264,14.995532 14.048544,13.991384 12.834048,12.464708 C12.622128,12.837536 12.500672,13.270808 12.500672,13.73318 C12.500672,14.608232 12.935408,15.380756 13.596224,15.83342 C13.19264,15.819992 12.812672,15.706412 12.480848,15.517316 C12.480592,15.528212 12.480592,15.538808 12.480592,15.549548 C12.480592,16.77176 13.329456,17.791136 14.45608,18.023072 C14.249472,18.080828 14.031808,18.111872 13.8072,18.111872 C13.64832,18.111872 13.494256,18.095912 13.343792,18.0665 C13.657248,19.068716 14.566704,19.797956 15.644144,19.81796 C14.801376,20.494952 13.739648,20.89838 12.585744,20.89838 C12.38704,20.89838 12.191088,20.885984 11.9984,20.863004 C13.088368,21.579104 14.382688,21.99686 15.773312,21.99686 C20.30312,21.99686 22.779856,18.15218 22.779856,14.818976 C22.779856,14.709572 22.777696,14.59988 22.772976,14.49212 C23.253888,14.136452 23.671632,13.691684 24.001568,13.185728 Z" id="Twitter-Logo" fill="#FFFFFF"></path>
                    </g>
                </g>
            </g>
        </g>
    </g>
</svg>