<?xml version="1.0" encoding="UTF-8"?>
<svg width="16px" height="16px" viewBox="0 0 16 16" version="1.1" xmlns="http://www.w3.org/2000/svg" xmlns:xlink="http://www.w3.org/1999/xlink">
    <!-- Generator: Sketch 49 (51002) - http://www.bohemiancoding.com/sketch -->
    <title>phone</title>
    <desc>Created with Sketch.</desc>
    <defs></defs>
    <g id="Page-1" stroke="none" stroke-width="1" fill="none" fill-rule="evenodd">
        <g id="conversations" transform="translate(-1150.000000, -469.000000)" fill="#B0B8BC">
            <g id="patient-info" transform="translate(1121.000000, 131.000000)">
                <g id="phone" transform="translate(29.000000, 337.000000)">
                    <path d="M13.233,14.32 C12.243,14.76 11.153,15 10.002,15 C7.932,15 6.041,14.21 4.621,12.92 C4.521,12.83 4.431,12.74 4.341,12.65 C3.881,12.2 3.481,11.69 3.151,11.14 C3.041,10.96 2.941,10.77 2.851,10.58 C2.301,9.5 2.001,8.29 2.001,7 C2.001,5.85 2.241,4.76 2.681,3.77 L5.001,3 L6.001,6 L4.001,7 C4.001,8.66 4.671,10.16 5.762,11.24 C6.842,12.33 8.342,13 10.002,13 L11.003,11 L14.003,12 L13.233,14.32 Z M14.636,10.103 L11.635,9.103 C11.426,9.033 11.213,9 11.003,9 C10.263,9 9.56,9.412 9.213,10.106 L8.849,10.833 C8.223,10.646 7.652,10.306 7.182,9.832 C6.7,9.354 6.357,8.78 6.169,8.153 L6.896,7.789 C7.787,7.344 8.214,6.312 7.899,5.368 L6.899,2.368 C6.62,1.53 5.839,1 5.002,1 C4.793,1 4.58,1.033 4.371,1.102 L2.051,1.872 C1.516,2.049 1.081,2.444 0.853,2.958 C0.287,4.231 0,5.591 0,7 C0,8.577 0.355,10.078 1.056,11.462 C1.179,11.72 1.309,11.963 1.444,12.183 C1.857,12.871 2.364,13.514 2.943,14.08 C3.04,14.178 3.156,14.292 3.283,14.406 C5.122,16.077 7.511,17 10.002,17 C11.412,17 12.773,16.713 14.045,16.148 C14.56,15.919 14.954,15.484 15.132,14.95 L15.902,12.63 C16.249,11.583 15.683,10.452 14.636,10.103 Z"></path>
                </g>
            </g>
        </g>
    </g>
</svg>