<?xml version="1.0" encoding="UTF-8"?>
<svg width="13px" height="12px" viewBox="0 0 13 12" version="1.1" xmlns="http://www.w3.org/2000/svg" xmlns:xlink="http://www.w3.org/1999/xlink">
    <!-- Generator: Sketch 50.2 (55047) - http://www.bohemiancoding.com/sketch -->
    <title>icn-change</title>
    <desc>Created with Sketch.</desc>
    <defs></defs>
    <g id="Page-1" stroke="none" stroke-width="1" fill="none" fill-rule="evenodd">
        <g id="locations-list" transform="translate(-716.000000, -365.000000)" fill="#B0B8BC">
            <g id="1" transform="translate(280.000000, 175.000000)">
                <path d="M447.426608,190.000804 C447.007269,190.000804 446.664935,190.338563 446.664935,190.75104 L446.664935,192.040317 C445.377183,190.60084 443.411627,189.775886 441.256224,190.053412 C438.640311,190.402607 436.446787,192.47033 436.060232,195.1541 C435.995425,195.601649 436.362156,196.000402 436.821142,196.000402 C437.197785,196.000402 437.51572,195.728213 437.56909,195.361482 C437.884738,193.180919 439.793112,191.500513 442.09414,191.500513 C443.442124,191.500513 444.661257,192.078438 445.491548,193.000222 L444.379156,193.000222 C443.96058,193.000222 443.617484,193.33798 443.617484,193.750457 C443.617484,194.162935 443.96058,194.500693 444.379156,194.500693 L447.426608,194.500693 C447.624841,194.500693 447.800201,194.425212 447.936676,194.30551 C448.089163,194.170559 448.18828,193.967751 448.18828,193.750457 L448.18828,190.75104 C448.18828,190.338563 447.845184,190.000804 447.426608,190.000804 M447.365613,196.000402 C446.984395,196.000402 446.67256,196.277928 446.619189,196.645422 C446.253221,199.127909 443.830966,200.956989 441.111362,200.395075 C440.159843,200.201417 439.317353,199.695923 438.68682,198.99982 L439.808361,198.99982 C440.229987,198.99982 440.570796,198.664349 440.570796,198.250347 C440.570796,197.836345 440.229987,197.500111 439.808361,197.500111 L436.761672,197.500111 C436.340808,197.500111 436,197.836345 436,198.250347 L436,201.249764 C436,201.663766 436.340808,202 436.761672,202 C437.182536,202 437.523344,201.663766 437.523344,201.249764 L437.523344,199.957438 C438.641836,201.206306 440.274971,202 442.09414,202 C445.15684,202 447.708708,199.75768 448.127285,196.855091 C448.195904,196.405255 447.830698,196.000402 447.365613,196.000402" id="icn-change"></path>
            </g>
        </g>
    </g>
</svg>