<?xml version="1.0" encoding="UTF-8"?>
<svg width="16px" height="16px" viewBox="0 0 16 16" version="1.1" xmlns="http://www.w3.org/2000/svg" xmlns:xlink="http://www.w3.org/1999/xlink">
    <!-- Generator: Sketch 50.2 (55047) - http://www.bohemiancoding.com/sketch -->
    <title>icon</title>
    <desc>Created with Sketch.</desc>
    <defs></defs>
    <g id="Page-1" stroke="none" stroke-width="1" fill="none" fill-rule="evenodd">
        <g id="conversations5" transform="translate(-701.000000, -528.000000)" fill="#FFFFFF">
            <g id="new-chat" transform="translate(268.000000, 176.000000)">
                <g id="send" transform="translate(410.000000, 340.000000)">
                    <path d="M30.3279005,21.9860634 L30.7230554,22.983 L31.9190554,26 L35.8613163,16.4526475 L30.3279005,21.9860634 Z M28.9030018,20.5825349 L34.4781959,15.0073408 L24.9820554,19 L28.0000554,20.218 L28.9030018,20.5825349 Z M38.2750554,12.586 C38.8430554,13.159 39.0120554,14.021 38.7030554,14.769 L33.7490554,26.769 C33.4410554,27.515 32.7190554,28 31.9190554,28 L31.9050554,28 C31.1000554,27.994 30.3780554,27.497 30.0790554,26.743 L28.8830554,23.726 L28.4120554,22.539 L27.2640554,22.075 L24.2460554,20.857 C23.4980554,20.555 23.0060554,19.827 23.0000554,19.014 C22.9940554,18.202 23.4760554,17.466 24.2200554,17.154 L36.1120554,12.154 C36.3580554,12.05 36.6170554,12 36.8740554,12 C37.3890554,12 37.8960554,12.203 38.2750554,12.586 Z" id="icon"></path>
                </g>
            </g>
        </g>
    </g>
</svg>