<?xml version="1.0" encoding="UTF-8"?>
<svg width="12px" height="10px" viewBox="0 0 12 10" version="1.1" xmlns="http://www.w3.org/2000/svg" xmlns:xlink="http://www.w3.org/1999/xlink">
    <!-- Generator: Sketch 50.2 (55047) - http://www.bohemiancoding.com/sketch -->
    <title>Twitter-color</title>
    <desc>Created with Sketch.</desc>
    <defs></defs>
    <g id="Page-1" stroke="none" stroke-width="1" fill="none" fill-rule="evenodd">
        <g id="conversations5" transform="translate(-898.000000, -396.000000)" fill="#00AAEC">
            <g id="new-chat-2" transform="translate(848.000000, 176.000000)">
                <g id="customer" transform="translate(30.000000, 70.000000)">
                    <g id="2" transform="translate(20.000000, 138.000000)">
                        <g id="social-channel" transform="translate(0.000000, 12.000000)">
                            <path d="M12,1.18382087 C11.5590773,1.38461538 11.0843458,1.52040448 10.5863708,1.5810762 C11.0949111,1.2690502 11.4851206,0.774286746 11.6689558,0.184904298 C11.1928156,0.473817263 10.6666667,0.684001445 10.1045959,0.796677501 C9.65662969,0.306247743 9.01637612,0 8.30780067,0 C6.94911076,0 5.84680401,1.13037198 5.84680401,2.52437703 C5.84680401,2.72228241 5.8679345,2.91440953 5.91019546,3.09931383 C3.86406057,2.9938606 2.05036098,1.98988805 0.835358338,0.460816179 C0.623349181,0.834958469 0.502201092,1.2690502 0.502201092,1.73131094 C0.502201092,2.60671723 0.936784645,3.37955941 1.59746434,3.83243048 C1.19457651,3.82015168 0.814227857,3.70530878 0.48177496,3.51751535 L0.48177496,3.54857349 C0.48177496,4.7721199 1.33051594,5.79270495 2.45747491,6.02383532 C2.25110055,6.08306248 2.03345659,6.11267606 1.80876915,6.11267606 C1.65029054,6.11267606 1.49533369,6.09750813 1.34530727,6.06789455 C1.65874274,7.07042254 2.56735341,7.80065005 3.64500792,7.82015168 C2.80260609,8.49765258 1.74044726,8.90140845 0.587427364,8.90140845 C0.388800845,8.90140845 0.192287375,8.88985193 0,8.86673889 C1.08962846,9.58179848 2.38422257,10 3.77390386,10 C8.30287022,10 10.7786582,6.15384615 10.7786582,2.81762369 C10.7786582,2.70783676 10.7765452,2.59804984 10.7723191,2.49042976 C11.2533897,2.13434453 11.6710689,1.69014085 12,1.18382087" id="Twitter"></path>
                        </g>
                    </g>
                </g>
            </g>
        </g>
    </g>
</svg>