<?xml version="1.0" encoding="UTF-8"?>
<svg width="17px" height="14px" viewBox="0 0 17 14" version="1.1" xmlns="http://www.w3.org/2000/svg" xmlns:xlink="http://www.w3.org/1999/xlink">
    <!-- Generator: Sketch 50.2 (55047) - http://www.bohemiancoding.com/sketch -->
    <title>task</title>
    <desc>Created with Sketch.</desc>
    <defs></defs>
    <g id="Page-1" stroke="none" stroke-width="1" fill="none" fill-rule="evenodd">
        <g id="locations-add-manual" transform="translate(-1151.000000, -286.000000)" fill="#FFFFFF">
            <g id="activity" transform="translate(850.000000, 177.000000)">
                <g id="actions" transform="translate(30.000000, 108.000000)">
                    <g id="task" transform="translate(271.000000, 0.000000)">
                        <path d="M3,9 L5,9 L5,11 L3,11 L3,9 Z M3,13 L5,13 L5,15 L3,15 L3,13 Z M4.06025903,6.55704586 C3.77828987,6.84237218 3.4013311,7 3.00037496,7 C2.59841892,7 2.22345993,6.84237218 1.93949099,6.55704586 L0.293217929,4.72417902 C-0.0977393098,4.32911182 -0.0977393098,3.69061937 0.293217929,3.29555217 C0.684175168,2.90148261 1.31710594,2.90148261 1.70706329,3.29555217 L3.00037496,4.77225994 L6.29368663,1.29555217 C6.68364398,0.901482611 7.31657475,0.901482611 7.70753199,1.29555217 C8.09748934,1.69061937 8.09748934,2.32911182 7.70753199,2.72417902 L4.06025903,6.55704586 Z M8,5 L16,5 C16.5522847,5 17,5.44771525 17,6 C17,6.55228475 16.5522847,7 16,7 L8,7 C7.44771525,7 7,6.55228475 7,6 C7,5.44771525 7.44771525,5 8,5 Z M8,9 L16,9 C16.5522847,9 17,9.44771525 17,10 C17,10.5522847 16.5522847,11 16,11 L8,11 C7.44771525,11 7,10.5522847 7,10 C7,9.44771525 7.44771525,9 8,9 Z M8,13 L16,13 C16.5522847,13 17,13.4477153 17,14 C17,14.5522847 16.5522847,15 16,15 L8,15 C7.44771525,15 7,14.5522847 7,14 C7,13.4477153 7.44771525,13 8,13 Z"></path>
                    </g>
                </g>
            </g>
        </g>
    </g>
</svg>