<?xml version="1.0" encoding="UTF-8"?>
<svg width="16px" height="16px" viewBox="0 0 16 16" version="1.1" xmlns="http://www.w3.org/2000/svg" xmlns:xlink="http://www.w3.org/1999/xlink">
    <!-- Generator: Sketch 50.2 (55047) - http://www.bohemiancoding.com/sketch -->
    <title>Fill 1</title>
    <desc>Created with Sketch.</desc>
    <defs></defs>
    <g id="Page-1" stroke="none" stroke-width="1" fill="none" fill-rule="evenodd">
        <g id="locations-add-manual" transform="translate(-890.000000, -985.000000)" fill="#FFFFFF">
            <g id="activity" transform="translate(850.000000, 177.000000)">
                <g id="2" transform="translate(30.000000, 798.000000)">
                    <g id="icon">
                        <path d="M23.233,23.32 C22.243,23.76 21.153,24 20.002,24 C17.932,24 16.041,23.21 14.621,21.92 C14.521,21.83 14.431,21.74 14.341,21.65 C13.881,21.2 13.481,20.69 13.151,20.14 C13.041,19.96 12.941,19.77 12.851,19.58 C12.301,18.5 12.001,17.29 12.001,16 C12.001,14.85 12.241,13.76 12.681,12.77 L15.001,12 L16.001,15 L14.001,16 C14.001,17.66 14.671,19.16 15.762,20.24 C16.842,21.33 18.342,22 20.002,22 L21.003,20 L24.003,21 L23.233,23.32 Z M24.636,19.103 L21.635,18.103 C21.426,18.033 21.213,18 21.003,18 C20.263,18 19.56,18.412 19.213,19.106 L18.849,19.833 C18.223,19.646 17.652,19.306 17.182,18.832 C16.7,18.354 16.357,17.78 16.169,17.153 L16.896,16.789 C17.787,16.344 18.214,15.312 17.899,14.368 L16.899,11.368 C16.62,10.53 15.839,10 15.002,10 C14.793,10 14.58,10.033 14.371,10.102 L12.051,10.872 C11.516,11.049 11.081,11.444 10.853,11.958 C10.287,13.231 10,14.591 10,16 C10,17.577 10.355,19.078 11.056,20.462 C11.179,20.72 11.309,20.963 11.444,21.183 C11.857,21.871 12.364,22.514 12.943,23.08 C13.04,23.178 13.156,23.292 13.283,23.406 C15.122,25.077 17.511,26 20.002,26 C21.412,26 22.773,25.713 24.045,25.148 C24.56,24.919 24.954,24.484 25.132,23.95 L25.902,21.63 C26.249,20.583 25.683,19.452 24.636,19.103 Z" id="Fill-1"></path>
                    </g>
                </g>
            </g>
        </g>
    </g>
</svg>