<?xml version="1.0" encoding="UTF-8"?>
<svg width="32px" height="32px" viewBox="0 0 32 32" version="1.1" xmlns="http://www.w3.org/2000/svg" xmlns:xlink="http://www.w3.org/1999/xlink">
    <!-- Generator: Sketch 49 (51002) - http://www.bohemiancoding.com/sketch -->
    <title>g+</title>
    <desc>Created with Sketch.</desc>
    <defs></defs>
    <g id="Page-1" stroke="none" stroke-width="1" fill="none" fill-rule="evenodd">
        <g id="Artboard" transform="translate(-330.000000, -473.000000)">
            <g id="1">
                <g id="Sources" transform="translate(329.000000, 443.000000)">
                    <g id="g+" transform="translate(0.000000, 29.000000)">
                        <path d="M16.99999,1.000055 C25.83651,1.000055 33.00003,8.16347 33.00003,16.999955 C33.00003,25.836615 25.83651,33.00003 16.99999,33.00003 C8.16347,33.00003 1.00002,25.836615 1.00002,16.999955 C1.00002,8.16347 8.16347,1.000055 16.99999,1.000055 Z" id="Ellipse-4" fill="#EA4335"></path>
                        <path d="M15.80334,10.999815 L19.16919,10.999815 L18.13098,11.5698 L17.0883,11.5698 C17.455065,11.786805 17.73762,12.08412 17.93589,12.474855 C18.133125,12.86544 18.234225,13.27065 18.234225,13.69572 C18.234225,14.050635 18.17415,14.368395 18.059475,14.642715 C17.943945,14.917635 17.79975,15.144195 17.630325,15.30777 C17.464065,15.48015 17.29044,15.632535 17.12367,15.77358 C16.949865,15.91626 16.80918,16.063425 16.69494,16.217145 C16.56885,16.368345 16.51479,16.528185 16.51479,16.7028 C16.51479,16.828035 16.55367,16.94892 16.63761,17.06877 C16.724805,17.19249 16.837335,17.30682 16.972005,17.416515 C17.11053,17.525775 17.256795,17.64144 17.42622,17.763825 C17.585265,17.882175 17.749455,18.018 17.91468,18.163665 C18.079305,18.30948 18.231405,18.4668 18.35988,18.63753 C18.50151,18.81036 18.614025,19.01529 18.692475,19.249455 C18.775815,19.489005 18.81822,19.74438 18.81822,20.021985 C18.81822,20.78733 18.463305,21.465675 17.74071,22.05417 C16.96788,22.682205 15.8859,22.999815 14.512005,22.999815 C14.215815,22.999815 13.90365,22.97385 13.590795,22.92564 C13.28103,22.87833 12.96645,22.796685 12.655755,22.683555 C12.34221,22.57251 12.063345,22.431915 11.817435,22.265805 C11.582445,22.10238 11.38314,21.88761 11.23173,21.626115 C11.07312,21.359565 10.999395,21.06927 10.999395,20.748375 C10.999395,20.456745 11.09217,20.13198 11.282805,19.775865 C11.44254,19.464525 11.696685,19.202745 12.022065,18.97812 C12.35148,18.754995 12.719955,18.5844 13.13382,18.4647 C13.5477,18.347985 13.94904,18.26187 14.33031,18.206205 C14.71191,18.151875 15.092145,18.11874 15.484125,18.109035 C15.151455,17.70681 14.987595,17.351145 14.987595,17.0334 C14.987595,16.97862 14.99283,16.91907 15.007425,16.86549 C15.01713,16.808475 15.0258,16.7652 15.047685,16.726245 C15.063045,16.68699 15.079605,16.63266 15.105705,16.568475 C15.134535,16.504905 15.151455,16.451475 15.1578,16.414305 C14.95155,16.439835 14.77791,16.450125 14.620335,16.450125 C13.859865,16.450125 13.198365,16.21461 12.655755,15.74268 C12.112695,15.2706 11.840445,14.68107 11.840445,13.972425 C11.840445,13.29573 12.083175,12.69231 12.570945,12.15978 C13.05126,11.631135 13.65087,11.292645 14.36679,11.144295 C14.847945,11.04519 15.33135,10.999815 15.80334,10.999815 Z M17.73762,20.63868 C17.73762,20.53764 17.726205,20.44137 17.699415,20.34705 C17.67582,20.252115 17.654955,20.169135 17.630325,20.08944 C17.60466,20.008545 17.55669,19.926015 17.493855,19.8393 C17.431365,19.752435 17.37927,19.67811 17.33352,19.620645 C17.28804,19.560945 17.21859,19.489005 17.130015,19.407225 C17.036985,19.323645 16.96788,19.26543 16.919985,19.22349 C16.865055,19.1805 16.783095,19.1208 16.671675,19.036185 C16.55367,18.95649 16.477275,18.90066 16.43445,18.87618 C16.3887,18.844695 16.301925,18.78813 16.174125,18.705885 C16.052925,18.62724 15.977565,18.57381 15.942465,18.558435 C15.862635,18.546495 15.73038,18.541125 15.56061,18.541125 C15.28131,18.541125 15.00846,18.55977 14.74392,18.59187 C14.479995,18.62724 14.197785,18.684855 13.916865,18.773055 C13.627875,18.856185 13.37931,18.969615 13.15503,19.102305 C12.944565,19.239315 12.769995,19.42005 12.63111,19.64139 C12.48795,19.872135 12.42684,20.12973 12.42684,20.41869 C12.42684,20.744355 12.50709,21.034635 12.696345,21.291495 C12.88062,21.550455 13.114425,21.7497 13.409175,21.8982 C13.703655,22.04268 14.011275,22.15446 14.33829,22.224765 C14.65707,22.296255 14.987595,22.33431 15.31641,22.33431 C15.612615,22.33431 15.904275,22.30431 16.174125,22.24551 C16.45119,22.181925 16.71168,22.09089 16.949865,21.96312 C17.196705,21.835365 17.383815,21.6582 17.527935,21.43209 C17.665515,21.20673 17.73762,20.9436 17.73762,20.63868 Z M16.81854,14.42391 C16.81854,14.133765 16.77477,13.830495 16.687995,13.50573 C16.60122,13.179165 16.482075,12.86544 16.32441,12.563955 C16.171725,12.260085 15.950445,12.009795 15.675105,11.811135 C15.405675,11.615325 15.09978,11.51547 14.758515,11.51547 C14.280015,11.51547 13.916865,11.68458 13.65087,12.013965 C13.386945,12.34725 13.25889,12.744405 13.25889,13.20483 C13.25889,13.43184 13.290045,13.66602 13.34532,13.91751 C13.40463,14.1678 13.498005,14.41914 13.61886,14.66748 C13.742535,14.916285 13.88313,15.14553 14.048445,15.34224 C14.21778,15.542385 14.41476,15.704175 14.6508,15.83178 C14.884515,15.95208 15.136515,16.0179 15.403275,16.0179 C15.89946,16.0179 16.25532,15.87327 16.477965,15.58164 C16.703175,15.29001 16.81854,14.905695 16.81854,14.42391 Z M22.99998,12.499485 L22.99998,13.249455 L21.39993,13.249455 L21.39993,14.749725 L20.59998,14.749725 L20.59998,13.249455 L18.99993,13.249455 L18.99993,12.499485 L20.59998,12.499485 L20.59998,10.999815 L21.39993,10.999815 L21.39993,12.499485 L22.99998,12.499485 Z" id="Combined-shape-654" fill="#FFFFFF"></path>
                    </g>
                </g>
            </g>
        </g>
    </g>
</svg>