<?xml version="1.0" encoding="UTF-8"?>
<svg width="12px" height="10px" viewBox="0 0 12 10" version="1.1" xmlns="http://www.w3.org/2000/svg" xmlns:xlink="http://www.w3.org/1999/xlink">
    <!-- Generator: Sketch 51.1 (57501) - http://www.bohemiancoding.com/sketch -->
    <title>Twitter Logo</title>
    <desc>Created with Sketch.</desc>
    <defs></defs>
    <g id="Page-1" stroke="none" stroke-width="1" fill="none" fill-rule="evenodd">
        <g id="Artboard" transform="translate(-389.000000, -1091.000000)" fill="#1DA1F2">
            <g id="Reviews-3-Hovers" transform="translate(-1.000000, -1.000000)">
                <g id="5" transform="translate(279.000000, 896.000000)">
                    <path d="M123.001584,197.185692 C122.560144,197.38716 122.085424,197.522604 121.587168,197.583156 C122.095728,197.271456 122.48608,196.777056 122.670016,196.187268 C122.194176,196.476624 121.667344,196.68648 121.106176,196.799964 C120.65712,196.309512 120.016992,196.003116 119.3088,196.003116 C117.948816,196.003116 116.846224,197.132748 116.846224,198.52584 C116.846224,198.723468 116.867952,198.91638 116.90992,199.100616 C114.86328,198.995592 113.04856,197.991396 111.834064,196.464792 C111.622144,196.837608 111.500688,197.27088 111.500688,197.733132 C111.500688,198.608244 111.935424,199.380744 112.59624,199.833456 C112.192656,199.81998 111.812688,199.706388 111.480864,199.51734 C111.480608,199.528116 111.480608,199.538796 111.480608,199.549488 C111.480608,200.77182 112.329472,201.791028 113.456096,202.02312 C113.249488,202.080876 113.031824,202.111872 112.807216,202.111872 C112.648336,202.111872 112.494272,202.095984 112.343808,202.066536 C112.657264,203.068716 113.56672,203.797992 114.64416,203.817912 C113.801392,204.494916 112.739664,204.898356 111.58576,204.898356 C111.387056,204.898356 111.191104,204.885936 110.998416,204.862932 C112.088384,205.579116 113.382704,205.996788 114.773328,205.996788 C119.303136,205.996788 121.779856,202.152108 121.779856,198.818964 C121.779856,198.709608 121.777712,198.599772 121.772992,198.49206 C122.253904,198.136464 122.671648,197.691732 123.001584,197.185692 Z" id="Twitter-Logo"></path>
                </g>
            </g>
        </g>
    </g>
</svg>