<?xml version="1.0" encoding="UTF-8"?>
<svg width="14px" height="16px" viewBox="0 0 14 16" version="1.1" xmlns="http://www.w3.org/2000/svg" xmlns:xlink="http://www.w3.org/1999/xlink">
    <!-- Generator: Sketch 50.2 (55047) - http://www.bohemiancoding.com/sketch -->
    <title>doc</title>
    <desc>Created with Sketch.</desc>
    <defs></defs>
    <g id="Page-1" stroke="none" stroke-width="1" fill="none" fill-rule="evenodd">
        <g id="locations-add-manual" transform="translate(-891.000000, -1061.000000)" fill="#FFFFFF">
            <g id="activity" transform="translate(850.000000, 177.000000)">
                <g id="3" transform="translate(30.000000, 874.000000)">
                    <g id="icon">
                        <path d="M20,15 L20,12 C21.65,12 23,13.35 23,15 L20,15 Z M23,24 L13,24 L13,12 L18,12 L18,17 L16,17 C15.448,17 15,17.448 15,18 C15,18.552 15.448,19 16,19 L20,19 C20.552,19 21,18.552 21,18 C21,17.448 20.552,17 20,17 L23,17 L23,24 Z M20,10 L13,10 C11.9,10 11,10.9 11,12 L11,24 C11,25.1 11.9,26 13,26 L23,26 C24.1,26 25,25.1 25,24 L25,15 C25,12.24 22.76,10 20,10 Z M20,20 L16,20 C15.448,20 15,20.448 15,21 C15,21.552 15.448,22 16,22 L20,22 C20.552,22 21,21.552 21,21 C21,20.448 20.552,20 20,20 Z" id="doc"></path>
                    </g>
                </g>
            </g>
        </g>
    </g>
</svg>