<?xml version="1.0" encoding="UTF-8"?>
<svg width="16px" height="16px" viewBox="0 0 16 16" version="1.1" xmlns="http://www.w3.org/2000/svg" xmlns:xlink="http://www.w3.org/1999/xlink">
    <!-- Generator: Sketch 50.2 (55047) - http://www.bohemiancoding.com/sketch -->
    <title>Combined Shape</title>
    <desc>Created with Sketch.</desc>
    <defs></defs>
    <g id="Page-1" stroke="none" stroke-width="1" fill="none" fill-rule="evenodd">
        <g id="locations-list" transform="translate(-320.000000, -684.000000)" fill="#FFFFFF">
            <g id="4" transform="translate(310.000000, 674.000000)">
                <g id="social-media">
                    <path d="M14,20.3821851 L14,24.3821851 C14,24.9344698 13.5522847,25.3821851 13,25.3821851 C12.4477153,25.3821851 12,24.9344698 12,24.3821851 L12,20.3821851 L11,20.3821851 C10.4477153,20.3821851 10,19.9344698 10,19.3821851 L10,14.3138524 C10,13.7615677 10.4477153,13.3138524 11,13.3138524 L16,13.3138524 L16,20.3821851 L14,20.3821851 Z M18,13.3821851 L24.5527864,10.1057919 C25.0467649,9.85880262 25.6474379,10.059027 25.8944272,10.5530055 C25.9638549,10.6918609 26,10.844974 26,11.0002191 L26,22.7641511 C26,23.3164358 25.5522847,23.7641511 25,23.7641511 C24.8447549,23.7641511 24.6916418,23.728006 24.5527864,23.6585783 L18,20.3821851 L18,13.3821851 Z" id="Combined-Shape"></path>
                </g>
            </g>
        </g>
    </g>
</svg>