<?xml version="1.0" encoding="utf-8"?>
<!-- Generator: Adobe Illustrator 17.0.0, SVG Export Plug-In . SVG Version: 6.00 Build 0)  -->
<!DOCTYPE svg PUBLIC "-//W3C//DTD SVG 1.1//EN" "http://www.w3.org/Graphics/SVG/1.1/DTD/svg11.dtd">
<svg version="1.1" id="Layer_1" xmlns="http://www.w3.org/2000/svg" xmlns:xlink="http://www.w3.org/1999/xlink" x="0px" y="0px"
	 width="40px" height="58px" viewBox="0 0 40 58" enable-background="new 0 0 40 58" xml:space="preserve">
<g>
	<defs>
		<rect id="SVGID_1_" width="40" height="58"/>
	</defs>
	<clipPath id="SVGID_2_">
		<use xlink:href="#SVGID_1_"  overflow="visible"/>
	</clipPath>
	<path clip-path="url(#SVGID_2_)" fill="#FFFFFF" d="M39,38c0,10.493-8.507,19-19,19S1,48.493,1,38s8.507-19,19-19S39,27.507,39,38"
		/>
	
		<circle clip-path="url(#SVGID_2_)" fill="none" stroke="#188BF6" stroke-width="2" stroke-linecap="round" stroke-linejoin="round" stroke-miterlimit="10" cx="20" cy="38" r="19"/>
	
		<path clip-path="url(#SVGID_2_)" fill="none" stroke="#188BF6" stroke-width="2" stroke-linecap="round" stroke-linejoin="round" stroke-miterlimit="10" d="
		M20,19c3.674,0,7.093,1.06,10,2.866V10.219C30,5.149,25.5,1,20,1s-10,4.149-10,9.219v11.647C12.907,20.06,16.326,19,20,19z"/>
	<path clip-path="url(#SVGID_2_)" fill="#DEEFFF" d="M28,38c0,4.418-3.582,8-8,8s-8-3.582-8-8s3.582-8,8-8S28,33.582,28,38"/>
	
		<circle clip-path="url(#SVGID_2_)" fill="none" stroke="#188BF6" stroke-width="2" stroke-linecap="round" stroke-linejoin="round" stroke-miterlimit="10" cx="20" cy="38" r="8"/>
	
		<line clip-path="url(#SVGID_2_)" fill="none" stroke="#188BF6" stroke-width="2" stroke-linecap="round" stroke-linejoin="round" stroke-miterlimit="10" x1="20" y1="30" x2="20" y2="26"/>
	
		<line clip-path="url(#SVGID_2_)" fill="none" stroke="#188BF6" stroke-width="2" stroke-linecap="round" stroke-linejoin="round" stroke-miterlimit="10" x1="20" y1="50" x2="20" y2="46"/>
	
		<line clip-path="url(#SVGID_2_)" fill="none" stroke="#188BF6" stroke-width="2" stroke-linecap="round" stroke-linejoin="round" stroke-miterlimit="10" x1="25.657" y1="43.657" x2="28.485" y2="46.485"/>
	
		<line clip-path="url(#SVGID_2_)" fill="none" stroke="#188BF6" stroke-width="2" stroke-linecap="round" stroke-linejoin="round" stroke-miterlimit="10" x1="11.515" y1="46.485" x2="14.343" y2="43.657"/>
	
		<line clip-path="url(#SVGID_2_)" fill="none" stroke="#188BF6" stroke-width="2" stroke-linecap="round" stroke-linejoin="round" stroke-miterlimit="10" x1="25.657" y1="32.343" x2="28.485" y2="29.515"/>
	
		<line clip-path="url(#SVGID_2_)" fill="none" stroke="#188BF6" stroke-width="2" stroke-linecap="round" stroke-linejoin="round" stroke-miterlimit="10" x1="11.515" y1="29.515" x2="14.343" y2="32.343"/>
	
		<line clip-path="url(#SVGID_2_)" fill="none" stroke="#188BF6" stroke-width="2" stroke-linecap="round" stroke-linejoin="round" stroke-miterlimit="10" x1="28" y1="38" x2="32" y2="38"/>
	
		<line clip-path="url(#SVGID_2_)" fill="none" stroke="#188BF6" stroke-width="2" stroke-linecap="round" stroke-linejoin="round" stroke-miterlimit="10" x1="8" y1="38" x2="12" y2="38"/>
</g>
</svg>
