<?xml version="1.0" encoding="UTF-8"?>
<svg width="16px" height="15px" viewBox="0 0 16 15" version="1.1" xmlns="http://www.w3.org/2000/svg" xmlns:xlink="http://www.w3.org/1999/xlink">
    <!-- Generator: Sketch 51.1 (57501) - http://www.bohemiancoding.com/sketch -->
    <title>icon</title>
    <desc>Created with Sketch.</desc>
    <defs></defs>
    <g id="Page-1" stroke="none" stroke-width="1" fill="none" fill-rule="evenodd">
        <g id="dashboard" transform="translate(-359.000000, -1765.000000)" fill="#37CA37">
            <g id="website-visitors" transform="translate(280.000000, 1538.000000)">
                <g id="r1" transform="translate(40.000000, 112.000000)">
                    <g id="conversion-rate" transform="translate(0.000000, 15.000000)">
                        <g id="conversion" transform="translate(38.000000, 35.000000)">
                            <g id="website" transform="translate(0.000000, 62.000000)">
                                <path d="M13,5 C12.45,5 12,5.45 12,6 C12,6.55 12.45,7 13,7 C13.55,7 14,6.55 14,6 C14,5.45 13.55,5 13,5 M9.47,10.12 C9.33,10.04 9.17,10 9,10 C8.83,10 8.67,10.04 8.53,10.12 C8.21,10.29 8,10.62 8,11 C8,11.55 8.45,12 9,12 C9.55,12 10,11.55 10,11 C10,10.62 9.79,10.29 9.47,10.12 M5,5 C4.45,5 4,5.45 4,6 C4,6.55 4.45,7 5,7 C5.55,7 6,6.55 6,6 C6,5.45 5.55,5 5,5 M14.77,8.42 C16.089,9.07 16.999,10.429 17,11.998 C17,11.999 17,11.999 17,12 C17,12.552 16.553,13 16,13 C15.448,13 15,12.552 15,12 C15,10.9 14.1,10 13,10 C12.6,10 12.23,10.11 11.92,10.32 C11.97,10.54 12,10.77 12,11 C12,11.99 11.51,12.87 10.77,13.42 C10.767,13.422 10.763,13.424 10.76,13.426 C12.081,14.08 12.999,15.428 13,16.999 C13,16.999 13,16.999 13,17 C13,17.552 12.553,18 12,18 C11.448,18 11,17.552 11,17 C11,15.898 10.103,15 9,15 C7.897,15 7,15.898 7,17 C7,17.552 6.553,18 6,18 C5.448,18 5,17.552 5,17 C5,17 5,16.999 5,16.999 C5.001,15.428 5.919,14.08 7.24,13.426 C7.237,13.424 7.233,13.422 7.23,13.42 C6.49,12.87 6,11.99 6,11 C6,10.77 6.03,10.54 6.08,10.32 C5.77,10.11 5.4,10 5,10 C3.9,10 3,10.9 3,12 C3,12.552 2.553,13 2,13 C1.448,13 1,12.552 1,12 C1,11.999 1.001,11.999 1.001,11.998 C1.001,10.429 1.911,9.07 3.23,8.42 C2.49,7.87 2.001,6.99 2.001,6 C2.001,4.35 3.35,3 5,3 C6.65,3 8,4.35 8,6 C8,6.99 7.51,7.87 6.77,8.42 C6.9,8.48 7.03,8.55 7.16,8.64 C7.67,8.24 8.31,8 9,8 C9.69,8 10.33,8.24 10.84,8.64 C10.97,8.55 11.1,8.48 11.23,8.42 C10.49,7.87 10,6.99 10,6 C10,4.35 11.35,3 13,3 C14.65,3 16,4.35 16,6 C16,6.99 15.51,7.87 14.77,8.42" id="icon"></path>
                            </g>
                        </g>
                    </g>
                </g>
            </g>
        </g>
    </g>
</svg>