<?xml version="1.0" encoding="UTF-8"?>
<svg width="80px" height="128px" viewBox="0 0 80 128" version="1.1" xmlns="http://www.w3.org/2000/svg" xmlns:xlink="http://www.w3.org/1999/xlink">
    <!-- Generator: Sketch 50.2 (55047) - http://www.bohemiancoding.com/sketch -->
    <title>Combined Shape</title>
    <desc>Created with Sketch.</desc>
    <defs></defs>
    <g id="Page-1" stroke="none" stroke-width="1" fill="none" fill-rule="evenodd">
        <g id="locations-list" transform="translate(-1258.000000, -196.000000)" fill="#30B430" fill-rule="nonzero">
            <g id="3" transform="translate(1040.000000, 175.000000)">
                <path d="M250.094608,121.152908 L250.094608,90.4132524 C228.246728,81.4363136 220.025125,75.62027 218.208011,62.7075429 C216.074748,47.5481933 230.604329,35.3726987 250.094608,32.7321744 L250.094608,29 C250.094608,24.581722 253.640869,21 258.015405,21 C262.38994,21 265.936202,24.581722 265.936202,29 L265.936202,32.6853351 C272.851572,33.5496201 279.228955,35.5315214 285.005525,38.3344524 C289.837667,40.6791237 293.306937,43.0917182 295.323641,44.8819213 C298.609457,47.7986994 298.932031,52.8535308 296.04413,56.1722031 C293.156229,59.4908754 288.151443,59.816675 284.865626,56.8998969 C283.871443,56.0173727 281.575708,54.4208763 278.1455,52.7564567 C274.414877,50.9462688 270.336898,49.595292 265.936202,48.8518013 L265.936202,79.5951564 C287.772637,88.5685297 295.990832,94.3848715 297.807521,107.294588 C299.940227,122.449977 285.418795,134.62307 265.936202,137.267885 L265.936202,141 C265.936202,145.418278 262.38994,149 258.015405,149 C253.640869,149 250.094608,145.418278 250.094608,141 L250.094608,137.318704 C243.173352,136.455429 236.790832,134.472674 231.010007,131.667679 C226.177865,129.323008 222.708596,126.910413 220.691891,125.12021 C217.406075,122.203432 217.083501,117.1486 219.971402,113.829928 C222.859303,110.511256 227.86409,110.185456 231.149906,113.102234 C232.14409,113.984759 234.439824,115.581255 237.870033,117.245675 C241.604972,119.057957 245.688072,120.409965 250.094608,121.152908 Z M265.936202,121.097875 C276.333804,119.194431 282.722721,113.80386 282.123549,109.546038 C281.556796,105.518585 277.218517,102.030392 265.936216,96.9763815 L265.936202,121.097875 Z M250.094608,73.0325987 L250.094608,48.9014629 C239.687987,50.8024212 233.292518,56.1961864 233.891983,60.4560934 C234.458993,64.4853649 238.800935,67.9748903 250.094608,73.0325987 Z" id="Combined-Shape"></path>
            </g>
        </g>
    </g>
</svg>