<?xml version="1.0" encoding="UTF-8"?>
<svg width="14px" height="14px" viewBox="0 0 14 14" version="1.1" xmlns="http://www.w3.org/2000/svg" xmlns:xlink="http://www.w3.org/1999/xlink">
    <!-- Generator: Sketch 50.2 (55047) - http://www.bohemiancoding.com/sketch -->
    <title>Fill 1</title>
    <desc>Created with Sketch.</desc>
    <defs></defs>
    <g id="Page-1" stroke="none" stroke-width="1" fill="none" fill-rule="evenodd">
        <g id="locations-list" transform="translate(-385.000000, -299.000000)" fill="#00D74D">
            <g id="1" transform="translate(280.000000, 175.000000)">
                <g id="phone" transform="translate(105.000000, 124.000000)">
                    <path d="M11.578875,11.655 C10.712625,12.04 9.758875,12.25 8.75175,12.25 C6.9405,12.25 5.285875,11.55875 4.043375,10.43 C3.955875,10.35125 3.877125,10.2725 3.798375,10.19375 C3.395875,9.8 3.045875,9.35375 2.757125,8.8725 C2.660875,8.715 2.573375,8.54875 2.494625,8.3825 C2.013375,7.4375 1.750875,6.37875 1.750875,5.25 C1.750875,4.24375 1.960875,3.29 2.345875,2.42375 L4.375875,1.75 L5.250875,4.375 L3.500875,5.25 C3.500875,6.7025 4.087125,8.015 5.04175,8.96 C5.98675,9.91375 7.29925,10.5 8.75175,10.5 L9.627625,8.75 L12.252625,9.625 L11.578875,11.655 Z M12.8065,7.965125 L10.180625,7.090125 C9.99775,7.028875 9.811375,7 9.627625,7 C8.980125,7 8.365,7.3605 8.061375,7.96775 L7.742875,8.603875 C7.195125,8.44025 6.6955,8.14275 6.28425,7.728 C5.8625,7.30975 5.562375,6.8075 5.397875,6.258875 L6.034,5.940375 C6.813625,5.551 7.18725,4.648 6.911625,3.822 L6.036625,1.197 C5.7925,0.46375 5.109125,0 4.37675,0 C4.193875,0 4.0075,0.028875 3.824625,0.08925 L1.794625,0.763 C1.3265,0.917875 0.945875,1.2635 0.746375,1.71325 C0.251125,2.827125 0,4.017125 0,5.25 C0,6.629875 0.310625,7.94325 0.924,9.15425 C1.031625,9.38 1.145375,9.592625 1.2635,9.785125 C1.624875,10.387125 2.0685,10.94975 2.575125,11.445 C2.66,11.53075 2.7615,11.6305 2.872625,11.73025 C4.48175,13.192375 6.572125,14 8.75175,14 C9.9855,14 11.176375,13.748875 12.289375,13.2545 C12.74,13.054125 13.08475,12.6735 13.2405,12.20625 L13.91425,10.17625 C14.217875,9.260125 13.722625,8.2705 12.8065,7.965125 Z" id="Fill-1"></path>
                </g>
            </g>
        </g>
    </g>
</svg>