<?xml version="1.0" encoding="UTF-8"?>
<svg width="17px" height="16px" viewBox="0 0 17 16" version="1.1" xmlns="http://www.w3.org/2000/svg" xmlns:xlink="http://www.w3.org/1999/xlink">
    <!-- Generator: Sketch 50.2 (55047) - http://www.bohemiancoding.com/sketch -->
    <title>Combined Shape</title>
    <desc>Created with Sketch.</desc>
    <defs></defs>
    <g id="Page-1" stroke="none" stroke-width="1" fill="none" fill-rule="evenodd">
        <g id="locations-list" transform="translate(-319.000000, -450.000000)" fill="#FFFFFF">
            <g id="1" transform="translate(310.000000, 440.000000)">
                <g id="listing">
                    <path d="M17,12 L25,12 C25.5522847,12 26,12.4477153 26,13 C26,13.5522847 25.5522847,14 25,14 L17,14 C16.4477153,14 16,13.5522847 16,13 C16,12.4477153 16.4477153,12 17,12 Z M11,20 L25,20 C25.5522847,20 26,20.4477153 26,21 C26,21.5522847 25.5522847,22 25,22 L11,22 C10.4477153,22 10,21.5522847 10,21 C10,20.4477153 10.4477153,20 11,20 Z M11,16 L25,16 C25.5522847,16 26,16.4477153 26,17 C26,17.5522847 25.5522847,18 25,18 L11,18 C10.4477153,18 10,17.5522847 10,17 C10,16.4477153 10.4477153,16 11,16 Z M11,24 L25,24 C25.5522847,24 26,24.4477153 26,25 C26,25.5522847 25.5522847,26 25,26 L11,26 C10.4477153,26 10,25.5522847 10,25 C10,24.4477153 10.4477153,24 11,24 Z M12.060259,14.5570459 C11.7782899,14.8423722 11.4013311,15 11.000375,15 C10.5984189,15 10.2234599,14.8423722 9.93949099,14.5570459 L9.29321793,13.724179 C8.90226069,13.3291118 8.90226069,12.6906194 9.29321793,12.2955522 C9.68417517,11.9014826 10.3171059,11.9014826 10.7070633,12.2955522 L11.000375,12.7722599 L13.2936866,10.2955522 C13.683644,9.90148261 14.3165747,9.90148261 14.707532,10.2955522 C15.0974893,10.6906194 15.0974893,11.3291118 14.707532,11.724179 L12.060259,14.5570459 Z" id="Combined-Shape"></path>
                </g>
            </g>
        </g>
    </g>
</svg>