<?xml version="1.0" encoding="UTF-8"?>
<svg width="16px" height="16px" viewBox="0 0 16 16" version="1.1" xmlns="http://www.w3.org/2000/svg" xmlns:xlink="http://www.w3.org/1999/xlink">
    <!-- Generator: Sketch 50.2 (55047) - http://www.bohemiancoding.com/sketch -->
    <title>Fill 1</title>
    <desc>Created with Sketch.</desc>
    <defs></defs>
    <g id="Page-1" stroke="none" stroke-width="1" fill="none" fill-rule="evenodd">
        <g id="sales-resources" transform="translate(-556.000000, -411.000000)" fill="#D31F1F">
            <g id="2" transform="translate(280.000000, 371.000000)">
                <path d="M285.6,48.6 L286.4,47.6 L286.4,45.2 L285.6,45.2 L285.6,48.6 Z M277.6,43.2 L276,43.2 L276,54.4 C276,55.28 276.72,56 277.6,56 L288.8,56 L288.8,54.4 L277.6,54.4 L277.6,43.2 Z M281.6,46 L282.4,46 L282.4,45.2 L281.6,45.2 L281.6,46 Z M290.8,45.2 L289.6,45.2 L289.6,46 L290.8,46 L290.8,47.2 L289.6,47.2 L289.6,48.8 L288.4,48.8 L288.4,44 L290.8,44 L290.8,45.2 Z M287.6,47.6 C287.6,48.264 287.064,48.8 286.4,48.8 L284.4,48.8 L284.4,44 L286.4,44 C287.064,44 287.6,44.536 287.6,45.2 L287.6,47.6 Z M283.6,46 C283.6,46.664 283.064,47.2 282.4,47.2 L281.6,47.2 L281.6,48.8 L280.4,48.8 L280.4,44 L282.4,44 C283.064,44 283.6,44.536 283.6,45.2 L283.6,46 Z M280.8,40 C279.92,40 279.2,40.72 279.2,41.6 L279.2,51.2 C279.2,52.08 279.92,52.8 280.8,52.8 L290.4,52.8 C291.28,52.8 292,52.08 292,51.2 L292,41.6 C292,40.72 291.28,40 290.4,40 L280.8,40 Z" id="Fill-1"></path>
            </g>
        </g>
    </g>
</svg>