<?xml version="1.0" encoding="UTF-8"?>
<svg width="13px" height="14px" viewBox="0 0 13 14" version="1.1" xmlns="http://www.w3.org/2000/svg" xmlns:xlink="http://www.w3.org/1999/xlink">
    <!-- Generator: Sketch 50.2 (55047) - http://www.bohemiancoding.com/sketch -->
    <title>Fill 1</title>
    <desc>Created with Sketch.</desc>
    <defs></defs>
    <g id="Page-1" stroke="none" stroke-width="1" fill="none" fill-rule="evenodd">
        <g id="locations-list" transform="translate(-386.000000, -273.000000)" fill="#FF9A00">
            <g id="1" transform="translate(280.000000, 175.000000)">
                <g id="address" transform="translate(106.000000, 98.000000)">
                    <path d="M6.125,7 C5.642,7 5.25,6.608 5.25,6.125 C5.25,5.642 5.642,5.25 6.125,5.25 C6.608,5.25 7,5.642 7,6.125 C7,6.608 6.608,7 6.125,7 M6.125,3.5 C4.67775,3.5 3.5,4.67775 3.5,6.125 C3.5,7.57225 4.67775,8.75 6.125,8.75 C7.57225,8.75 8.75,7.57225 8.75,6.125 C8.75,4.67775 7.57225,3.5 6.125,3.5 M6.125,12.25 C6.125,12.25 1.75,10.5 1.75,6.125 C1.75,3.709125 3.709125,1.75 6.125,1.75 C8.540875,1.75 10.5,3.709125 10.5,6.125 C10.5,10.5 6.125,12.25 6.125,12.25 M6.125,0 C2.7475,0 0,2.7475 0,6.125 C0,11.62175 5.25175,13.785625 5.474875,13.874875 C5.684,13.958 5.9045,14 6.125,14 C6.3455,14 6.566,13.958 6.775125,13.874875 C6.99825,13.785625 12.25,11.62175 12.25,6.125 C12.25,2.7475 9.5025,0 6.125,0" id="Fill-1"></path>
                </g>
            </g>
        </g>
    </g>
</svg>