<?xml version="1.0" encoding="UTF-8"?>
<svg width="32px" height="32px" viewBox="0 0 32 32" version="1.1" xmlns="http://www.w3.org/2000/svg" xmlns:xlink="http://www.w3.org/1999/xlink">
    <!-- Generator: Sketch 49 (51002) - http://www.bohemiancoding.com/sketch -->
    <title>f</title>
    <desc>Created with Sketch.</desc>
    <defs></defs>
    <g id="Page-1" stroke="none" stroke-width="1" fill="none" fill-rule="evenodd">
        <g id="Artboard" transform="translate(-370.000000, -473.000000)">
            <g id="1">
                <g id="Sources" transform="translate(329.000000, 443.000000)">
                    <g id="f" transform="translate(39.000000, 29.000000)">
                        <path d="M18.00001,1.000055 C26.83653,1.000055 33.999945,8.16347 33.999945,16.999955 C33.999945,25.836615 26.83653,33.00003 18.00001,33.00003 C9.16349,33.00003 1.99997,25.836615 1.99997,16.999955 C1.99997,8.16347 9.16349,1.000055 18.00001,1.000055 Z" id="Ellipse-4-copy" fill="#3B5998"></path>
                        <path d="M19.46076,13.28439 L21.00768,13.28439 L21.00768,10.999665 L19.1897,10.999665 L19.1897,11.00817 C16.98772,11.08593 16.53547,12.324105 16.49591,13.62498 L16.49153,13.62498 L16.49153,14.7651 L14.99215,14.7651 L14.99215,17.00295 L16.49153,17.00295 L16.49153,22.999815 L18.75257,22.999815 L18.75257,17.00295 L20.60402,17.00295 L20.96082,14.7651 L18.75257,14.7651 L18.75257,14.0763 C18.75257,13.637355 19.04431,13.28439 19.46076,13.28439 Z" id="Facebook-Logo" fill="#FFFFFF"></path>
                    </g>
                </g>
            </g>
        </g>
    </g>
</svg>