<?xml version="1.0" encoding="UTF-8"?>
<svg width="12px" height="12px" viewBox="0 0 12 12" version="1.1" xmlns="http://www.w3.org/2000/svg" xmlns:xlink="http://www.w3.org/1999/xlink">
    <!-- Generator: Sketch 51.1 (57501) - http://www.bohemiancoding.com/sketch -->
    <title>Combined shape 5499</title>
    <desc>Created with Sketch.</desc>
    <defs></defs>
    <g id="Page-1" stroke="none" stroke-width="1" fill="none" fill-rule="evenodd">
        <g id="Artboard" transform="translate(-389.000000, -1127.000000)" fill="#EA4335">
            <g id="Reviews-3-Hovers" transform="translate(-1.000000, -1.000000)">
                <g id="5" transform="translate(279.000000, 896.000000)">
                    <path d="M115.803295,231.999815 L119.169145,231.999815 L118.13095,232.569785 L117.08827,232.569785 C117.45502,232.78676 117.737575,233.084015 117.935845,233.474825 C118.133095,233.865455 118.234195,234.27062 118.234195,234.69581 C118.234195,235.050725 118.17412,235.368395 118.059445,235.64264 C117.943915,235.91756 117.79972,236.144255 117.630295,236.3078 C117.464035,236.48012 117.29041,236.632595 117.12364,236.77361 C116.94982,236.916185 116.80915,237.063365 116.69491,237.21719 C116.56882,237.368315 116.514745,237.528215 116.514745,237.70283 C116.514745,237.827975 116.55364,237.948965 116.63758,238.068725 C116.724775,238.192415 116.837305,238.306775 116.971975,238.416515 C117.1105,238.525775 117.256765,238.64147 117.42619,238.763825 C117.585235,238.88222 117.749425,239.017955 117.91465,239.163695 C118.079275,239.309525 118.23136,239.466815 118.35985,239.6375 C118.50148,239.810285 118.613995,240.01523 118.692445,240.24953 C118.775785,240.48902 118.81819,240.74441 118.81819,241.021925 C118.81819,241.7873 118.463275,242.46566 117.740665,243.0542 C116.96785,243.682115 115.88587,243.999875 114.511975,243.999875 C114.21577,243.999875 113.903605,243.97379 113.59075,243.925655 C113.281,243.8783 112.96642,243.79667 112.655725,243.683465 C112.34218,243.57257 112.063315,243.43193 111.817405,243.26588 C111.5824,243.102335 111.38311,242.887565 111.2317,242.626025 C111.07309,242.35958 110.99935,242.06915 110.99935,241.748315 C110.99935,241.456745 111.09214,241.132055 111.282775,240.77588 C111.442495,240.46457 111.69664,240.20264 112.022035,239.978165 C112.35145,239.755025 112.719925,239.58446 113.13379,239.46461 C113.54767,239.34803 113.94901,239.26178 114.33028,239.206145 C114.71188,239.15186 115.092115,239.11874 115.484095,239.10902 C115.15141,238.70684 114.987565,238.351145 114.987565,238.033385 C114.987565,237.97862 114.9928,237.919025 115.007395,237.865415 C115.017085,237.80843 115.025755,237.7652 115.04764,237.726215 C115.063015,237.686945 115.079575,237.63266 115.105675,237.56855 C115.134505,237.50492 115.15141,237.45149 115.15777,237.414335 C114.95152,237.43994 114.77788,237.45014 114.62029,237.45014 C113.859835,237.45014 113.198335,237.214595 112.655725,236.74262 C112.112665,236.270645 111.840415,235.681145 111.840415,234.97247 C111.840415,234.29585 112.083145,233.69228 112.570915,233.159765 C113.05123,232.631105 113.65084,232.292645 114.36676,232.14431 C114.847915,232.04516 115.33132,231.999815 115.803295,231.999815 Z M117.737575,241.63877 C117.737575,241.5377 117.72616,241.44134 117.699385,241.347095 C117.67579,241.25219 117.654925,241.169105 117.630295,241.0895 C117.60463,241.008545 117.556645,240.926045 117.493825,240.839315 C117.431335,240.75239 117.37924,240.67808 117.33349,240.620615 C117.287995,240.56093 117.21856,240.48902 117.129985,240.407195 C117.03694,240.323645 116.96785,240.265505 116.919955,240.22343 C116.865025,240.180605 116.783065,240.12092 116.671645,240.03611 C116.55364,239.956505 116.477245,239.900765 116.43442,239.87612 C116.38867,239.84474 116.301895,239.78804 116.174095,239.70593 C116.052895,239.627285 115.977535,239.57387 115.942435,239.55836 C115.862605,239.546435 115.73035,239.54114 115.560565,239.54114 C115.28128,239.54114 115.00843,239.55971 114.74389,239.59187 C114.479965,239.627285 114.197755,239.68475 113.916835,239.77313 C113.62783,239.856095 113.379265,239.96969 113.155,240.102335 C112.944535,240.239315 112.769965,240.420005 112.63108,240.641405 C112.48792,240.87224 112.42681,241.12964 112.42681,241.41872 C112.42681,241.74437 112.50706,242.034695 112.696315,242.29142 C112.88059,242.550365 113.114395,242.74973 113.409145,242.898155 C113.703625,243.04265 114.011245,243.154505 114.33826,243.22478 C114.657025,243.2963 114.987565,243.334415 115.31638,243.334415 C115.612585,243.334415 115.904245,243.30428 116.174095,243.24557 C116.451145,243.18194 116.71165,243.090875 116.94982,242.963135 C117.196675,242.835395 117.383785,242.658275 117.52789,242.43206 C117.665485,242.20661 117.737575,241.94363 117.737575,241.63877 Z M116.81851,235.42394 C116.81851,235.133705 116.77474,234.830585 116.687965,234.50579 C116.60119,234.17918 116.482045,233.865455 116.32438,233.56397 C116.17168,233.26007 115.950415,233.009885 115.675075,232.811105 C115.405645,232.61531 115.09975,232.515485 114.758485,232.515485 C114.279985,232.515485 113.916835,232.68452 113.65084,233.014025 C113.386915,233.34719 113.258845,233.74436 113.258845,234.204875 C113.258845,234.43196 113.29,234.666065 113.345275,234.917495 C113.404585,235.167785 113.497975,235.419125 113.61883,235.66748 C113.742505,235.91621 113.8831,236.145605 114.0484,236.34227 C114.21775,236.5424 114.41473,236.704205 114.65077,236.831855 C114.884485,236.95208 115.136485,237.01793 115.403245,237.01793 C115.89943,237.01793 116.25529,236.873345 116.477935,236.58167 C116.703145,236.2901 116.81851,235.905725 116.81851,235.42394 Z M122.99995,233.49947 L122.99995,234.249455 L121.399885,234.249455 L121.399885,235.74968 L120.59995,235.74968 L120.59995,234.249455 L118.9999,234.249455 L118.9999,233.49947 L120.59995,233.49947 L120.59995,231.999815 L121.399885,231.999815 L121.399885,233.49947 L122.99995,233.49947 Z" id="Combined-shape-5499"></path>
                </g>
            </g>
        </g>
    </g>
</svg>