<?xml version="1.0" encoding="UTF-8"?>
<svg width="11px" height="16px" viewBox="0 0 11 16" version="1.1" xmlns="http://www.w3.org/2000/svg" xmlns:xlink="http://www.w3.org/1999/xlink">
    <!-- Generator: Sketch 50.2 (55047) - http://www.bohemiancoding.com/sketch -->
    <title>clip</title>
    <desc>Created with Sketch.</desc>
    <defs></defs>
    <g id="Page-1" stroke="none" stroke-width="1" fill="none" fill-rule="evenodd">
        <g id="conversations4" transform="translate(-1190.000000, -871.000000)" fill="#899094">
            <g id="chat" transform="translate(621.000000, 165.000000)">
                <g id="reply" transform="translate(10.000000, 678.000000)">
                    <path d="M568,28.99 L568,38.3 C568,39.954 566.871,41.459 565.235,41.791 C562.985,42.246 561,40.548 561,38.399 L561,32.049 C561,31.129 561.593,30.268 562.494,30.044 C563.435,29.809 564.312,30.254 564.74,30.981 C564.91,31.268 565,31.605 565,31.961 L565,38.399 C565,38.676 564.78,38.894 564.5,38.894 C564.22,38.894 564,38.676 564,38.399 L564,31.961 C564,31.417 563.55,30.971 563,30.971 C562.45,30.971 562,31.417 562,31.961 L562,38.256 C562,39.551 562.94,40.732 564.241,40.862 C565.737,41.011 567,39.85 567,38.399 L567,31.961 C567,31.833 566.99,31.694 566.98,31.565 C566.769,29.453 564.885,27.826 562.648,28.015 C560.546,28.192 559,30.067 559,32.156 L559,38.399 C559,40.092 559.78,41.608 561,42.598 C561.95,43.38 563.17,43.846 564.5,43.846 C565.83,43.846 567.05,43.38 568,42.598 C569.22,41.608 570,40.092 570,38.399 L570,28.99 C570,28.443 569.552,28 569,28 C568.448,28 568,28.443 568,28.99 Z" id="clip"></path>
                </g>
            </g>
        </g>
    </g>
</svg>