<?xml version="1.0" encoding="UTF-8"?>
<svg width="11px" height="16px" viewBox="0 0 11 16" version="1.1" xmlns="http://www.w3.org/2000/svg" xmlns:xlink="http://www.w3.org/1999/xlink">
    <!-- Generator: Sketch 50.2 (55047) - http://www.bohemiancoding.com/sketch -->
    <title>Combined Shape</title>
    <desc>Created with Sketch.</desc>
    <defs></defs>
    <g id="Page-1" stroke="none" stroke-width="1" fill="none" fill-rule="evenodd">
        <g id="locations-list" transform="translate(-1083.000000, -215.000000)" fill="#37CA37" fill-rule="nonzero">
            <g id="3" transform="translate(1040.000000, 175.000000)">
                <g id="$" transform="translate(30.000000, 30.000000)">
                    <path d="M17.0598908,22.5191135 L17.0598908,18.6766565 C14.3289059,17.5545392 13.3012054,16.8275337 13.0740663,15.2134429 C12.8074083,13.3185242 14.623606,11.7965873 17.0598908,11.4665218 L17.0598908,11 C17.0598908,10.4477153 17.5031735,10 18.0499905,10 C18.5968074,10 19.0400901,10.4477153 19.0400901,11 L19.0400901,11.4606669 C19.9045114,11.5687025 20.7016842,11.8164402 21.4237555,12.1668066 C22.0277732,12.4598905 22.461432,12.7614648 22.71352,12.9852402 C23.124247,13.3498374 23.1645688,13.9816913 22.8035811,14.3965254 C22.4425935,14.8113594 21.8169952,14.8520844 21.4062681,14.4874871 C21.2819952,14.3771716 20.9950284,14.1776095 20.5662523,13.9695571 C20.0999245,13.7432836 19.5901771,13.5744115 19.0400901,13.4814752 L19.0400901,17.3243946 C21.7696445,18.4460662 22.7969188,19.1731089 23.024005,20.7868235 C23.2905933,22.6812471 21.4754143,24.2028837 19.0400901,24.5334856 L19.0400901,25 C19.0400901,25.5522847 18.5968074,26 18.0499905,26 C17.5031735,26 17.0598908,25.5522847 17.0598908,25 L17.0598908,24.5398379 C16.1947339,24.4319287 15.3969188,24.1840842 14.6743157,23.8334599 C14.070298,23.5403759 13.6366393,23.2388016 13.3845513,23.0150262 C12.9738242,22.650429 12.9335025,22.0185751 13.2944901,21.603741 C13.6554777,21.188907 14.2810761,21.148182 14.6918031,21.5127793 C14.816076,21.6230948 15.1030429,21.8226569 15.5318189,22.0307093 C15.9986864,22.2572446 16.5090738,22.4262456 17.0598908,22.5191135 Z M19.0400901,22.5122343 C20.3397904,22.2743038 21.138405,21.6004825 21.0635085,21.0682547 C20.9926643,20.564823 20.450379,20.1287986 19.0400901,19.4970469 L19.0400901,22.5122343 Z M17.0598908,16.5040748 L17.0598908,13.4876829 C15.7590632,13.7253027 14.9596296,14.3995233 15.0345627,14.9320117 C15.1054389,15.4356706 15.6481817,15.8718613 17.0598908,16.5040748 Z" id="Combined-Shape"></path>
                </g>
            </g>
        </g>
    </g>
</svg>