<?xml version="1.0" encoding="UTF-8"?>
<svg width="16px" height="16px" viewBox="0 0 16 16" version="1.1" xmlns="http://www.w3.org/2000/svg" xmlns:xlink="http://www.w3.org/1999/xlink">
    <!-- Generator: Sketch 49 (51002) - http://www.bohemiancoding.com/sketch -->
    <title>gender</title>
    <desc>Created with Sketch.</desc>
    <defs></defs>
    <g id="Page-1" stroke="none" stroke-width="1" fill="none" fill-rule="evenodd">
        <g id="conversations" transform="translate(-1150.000000, -433.000000)" fill="#B0B8BC" fill-rule="nonzero">
            <g id="patient-info" transform="translate(1121.000000, 131.000000)">
                <g id="phone" transform="translate(29.000000, 301.000000)">
                    <path d="M8,12 C9.65685425,12 11,10.6568542 11,9 C11,7.34314575 9.65685425,6 8,6 C6.34314575,6 5,7.34314575 5,9 C5,10.6568542 6.34314575,12 8,12 Z M2.99526517,12.5172052 L3.7993354,11.7130031 C3.29361132,10.9315777 3,10.0000772 3,9 C3,6.23857625 5.23857625,4 8,4 C9.00020088,4 9.93180819,4.29368397 10.7132931,4.79952309 L12.5125212,3 L11,3 C10.4477153,3 10,2.55228475 10,2 C10,1.44771525 10.4477153,1 11,1 L15,1 C15.5522847,1 16,1.44771525 16,2 L16,6 C16,6.55228475 15.5522847,7 15,7 C14.4477153,7 14,6.55228475 14,6 L14,4.46827737 L12.1931512,6.27542242 C12.7034794,7.05921695 13,7.99498043 13,9 C13,11.7614237 10.7614237,14 8,14 C6.99485695,14 6.05898701,13.7034066 5.27513352,13.1929631 L4.47314403,13.995084 L5.6951,15.21704 C6.1031,15.62504 6.1031,16.28604 5.6951,16.69504 C5.2861,17.10304 4.6251,17.10304 4.2171,16.69504 L2.99526517,15.4732052 L1.78370758,16.6849614 C1.37577445,17.0929614 0.713882965,17.0929614 0.305949842,16.6849614 C-0.101983281,16.2769614 -0.101983281,15.6149614 0.305949842,15.2069614 L1.51738631,13.9953263 L0.3061,12.78404 C-0.1019,12.37604 -0.1019,11.71404 0.3061,11.30604 C0.7141,10.89804 1.3761,10.89804 1.7841,11.30604 L2.99526517,12.5172052 Z" id="gender"></path>
                </g>
            </g>
        </g>
    </g>
</svg>