<?xml version="1.0" encoding="UTF-8"?>
<svg width="16px" height="15px" viewBox="0 0 16 15" version="1.1" xmlns="http://www.w3.org/2000/svg" xmlns:xlink="http://www.w3.org/1999/xlink">
    <!-- Generator: Sketch 50.2 (55047) - http://www.bohemiancoding.com/sketch -->
    <title>Star Filled Icon</title>
    <desc>Created with Sketch.</desc>
    <defs></defs>
    <g id="Page-1" stroke="none" stroke-width="1" fill="none" fill-rule="evenodd">
        <g id="locations-list" transform="translate(-320.000000, -530.000000)" fill="#FFFFFF">
            <g id="2" transform="translate(310.000000, 520.000000)">
                <g id="reputation">
                    <path d="M13.6864716,25.0043824 C13.4712078,25.0047744 13.261197,24.9379986 13.0857738,24.8133824 C12.7474162,24.5726175 12.5948404,24.1469385 12.7033296,23.7463824 L13.8666809,19.5033824 L10.3786293,16.7413824 C10.0513305,16.4848861 9.91968761,16.0512489 10.0492467,15.6563824 C10.182319,15.2602614 10.5454365,14.9865512 10.9633085,14.9673824 L15.4475171,14.7393824 L17.0493778,10.6393824 C17.2052475,10.2530345 17.5804569,10 17.997479,10 C18.4145011,10 18.7897106,10.2530345 18.9455803,10.6393824 L20.5534479,14.7393824 L25.0366554,14.9673824 C25.4544269,14.9868293 25.8174047,15.2604342 25.9507171,15.6563824 C26.0801901,16.0510432 25.9490146,16.484458 25.6223357,16.7413824 L22.1402911,19.4993824 L23.3046436,23.7423824 C23.413228,24.1431636 23.2601725,24.5690659 22.9211982,24.8093824 C22.5795086,25.0520185 22.1247624,25.063878 21.770862,24.8393824 L18.0044872,22.4393824 L14.2381123,24.8393824 C14.073862,24.9460487 13.8823828,25.0033216 13.6864716,25.0043824 L13.6864716,25.0043824 Z" id="Star-Filled-Icon"></path>
                </g>
            </g>
        </g>
    </g>
</svg>