<?xml version="1.0" encoding="UTF-8"?>
<svg width="12px" height="13px" viewBox="0 0 12 13" version="1.1" xmlns="http://www.w3.org/2000/svg" xmlns:xlink="http://www.w3.org/1999/xlink">
    <!-- Generator: Sketch 50.2 (55047) - http://www.bohemiancoding.com/sketch -->
    <title>Group</title>
    <desc>Created with Sketch.</desc>
    <defs></defs>
    <g id="Page-1" stroke="none" stroke-width="1" fill="none" fill-rule="evenodd">
        <g id="conversations4" transform="translate(-322.000000, -598.000000)">
            <g id="messages" transform="translate(251.000000, 84.000000)">
                <g id="6" transform="translate(29.000000, 497.477419)">
                    <g id="social-channel" transform="translate(38.000000, 13.167742)">
                        <g id="Google" transform="translate(4.000000, 4.000000)">
                            <g id="Group">
                                <path d="M2.45681818,6 C2.45681818,5.61893333 2.52010795,5.2536 2.63306818,4.91093333 L0.655863636,3.40106667 C0.270517045,4.18346667 0.0534090909,5.06506667 0.0534090909,6 C0.0534090909,6.93413333 0.27025,7.8152 0.6550625,8.59706667 L2.63119886,7.08426667 C2.51930682,6.7432 2.45681818,6.3792 2.45681818,6" id="Fill-1" fill="#FBBC05"></path>
                                <path d="M5.92840909,2.53333333 C6.75625,2.53333333 7.50397727,2.82666667 8.09147727,3.30666667 L9.80056818,1.6 C8.75909091,0.693333333 7.42386364,0.133333333 5.92840909,0.133333333 C3.60671591,0.133333333 1.61135227,1.46106667 0.655863636,3.40106667 L2.63306818,4.91093333 C3.08864773,3.528 4.38728977,2.53333333 5.92840909,2.53333333" id="Fill-2" fill="#EA4335"></path>
                                <path d="M5.92840909,9.46666667 C4.38728977,9.46666667 3.08864773,8.472 2.63306818,7.08906667 L0.655863636,8.59866667 C1.61135227,10.5389333 3.60671591,11.8666667 5.92840909,11.8666667 C7.361375,11.8666667 8.72944886,11.3578667 9.75623864,10.4045333 L7.87944318,8.9536 C7.34989205,9.2872 6.68307955,9.46666667 5.92840909,9.46666667" id="Fill-3" fill="#34A853"></path>
                                <path d="M11.5363636,6 C11.5363636,5.65333333 11.4829545,5.28 11.4028409,4.93333333 L5.92840909,4.93333333 L5.92840909,7.2 L9.07954545,7.2 C8.92198864,7.9728 8.49311364,8.56693333 7.87944318,8.9536 L9.75623864,10.4045333 C10.8348352,9.40346667 11.5363636,7.91226667 11.5363636,6" id="Fill-4" fill="#4285F4"></path>
                            </g>
                        </g>
                    </g>
                </g>
            </g>
        </g>
    </g>
</svg>