<?xml version="1.0" encoding="UTF-8"?>
<svg width="16px" height="16px" viewBox="0 0 16 16" version="1.1" xmlns="http://www.w3.org/2000/svg" xmlns:xlink="http://www.w3.org/1999/xlink">
    <!-- Generator: Sketch 51.1 (57501) - http://www.bohemiancoding.com/sketch -->
    <title>icon</title>
    <desc>Created with Sketch.</desc>
    <defs></defs>
    <g id="Page-1" stroke="none" stroke-width="1" fill="none" fill-rule="evenodd">
        <g id="dashboard" transform="translate(-688.000000, -1764.000000)" fill="#FF3E7F">
            <g id="website-visitors" transform="translate(280.000000, 1538.000000)">
                <g id="r1" transform="translate(40.000000, 112.000000)">
                    <g id="conversion-rate" transform="translate(0.000000, 15.000000)">
                        <g id="conversion" transform="translate(38.000000, 35.000000)">
                            <g id="website" transform="translate(330.000000, 62.000000)">
                                <path d="M5,11 C4.448,11 4,10.552 4,10 C4,9.448 4.448,9 5,9 C5.552,9 6,9.448 6,10 C6,10.552 5.552,11 5,11 Z M5,14 C4.448,14 4,13.552 4,13 C4,12.448 4.448,12 5,12 C5.552,12 6,12.448 6,13 C6,13.552 5.552,14 5,14 Z M8,11 C7.448,11 7,10.552 7,10 C7,9.448 7.448,9 8,9 C8.552,9 9,9.448 9,10 C9,10.552 8.552,11 8,11 Z M8,14 C7.448,14 7,13.552 7,13 C7,12.448 7.448,12 8,12 C8.552,12 9,12.448 9,13 C9,13.552 8.552,14 8,14 Z M11,11 C10.448,11 10,10.552 10,10 C10,9.448 10.448,9 11,9 C11.552,9 12,9.448 12,10 C12,10.552 11.552,11 11,11 Z M11,14 C10.448,14 10,13.552 10,13 C10,12.448 10.448,12 11,12 C11.552,12 12,12.448 12,13 C12,13.552 11.552,14 11,14 Z M14,6 L12,6 L12,7 C12,7.552 11.552,8 11,8 C10.448,8 10,7.552 10,7 L10,6 L6,6 L6,7 C6,7.552 5.552,8 5,8 C4.448,8 4,7.552 4,7 L4,6 L2,6 L2,16 L14,16 L14,6 Z M13.993,18 L2.007,18 C0.902,18 0.005,17.105 0,16 L0,6 C0,5.468 0.212,4.96 0.588,4.583 C0.965,4.208 1.475,3.998 2.008,4 L4,4 L4,3 C4,2.448 4.448,2 5,2 C5.552,2 6,2.448 6,3 L6,4 L10,4 L10,3 C10,2.448 10.448,2 11,2 C11.552,2 12,2.448 12,3 L12,4 L13.993,4 C15.098,4 15.995,4.895 16,6 L16,16 C16,16.532 15.788,17.04 15.412,17.417 C15.035,17.792 14.525,18.002 13.992,18 L13.993,18 Z" id="icon"></path>
                            </g>
                        </g>
                    </g>
                </g>
            </g>
        </g>
    </g>
</svg>