<?xml version="1.0" encoding="UTF-8"?>
<svg width="16px" height="11px" viewBox="0 0 16 11" version="1.1" xmlns="http://www.w3.org/2000/svg" xmlns:xlink="http://www.w3.org/1999/xlink">
    <!-- Generator: Sketch 50.2 (55047) - http://www.bohemiancoding.com/sketch -->
    <title>icon-eye</title>
    <desc>Created with Sketch.</desc>
    <defs>
        <rect id="path-1" x="0" y="0" width="16" height="10.9090909"></rect>
    </defs>
    <g id="Page-1" stroke="none" stroke-width="1" fill="none" fill-rule="evenodd">
        <g id="icon-eye">
            <mask id="mask-2" fill="white">
                <use xlink:href="#path-1"></use>
            </mask>
            <g id="SVGID_1_"></g>
            <path d="M8,0 C4.36363636,0 1.25818182,2.26181818 0,5.45454545 C1.25818182,8.64727273 4.36363636,10.9090909 8,10.9090909 C11.6363636,10.9090909 14.7418182,8.64727273 16,5.45454545 C14.7418182,2.26181818 11.6363636,0 8,0 M8,9.09090909 C5.99272727,9.09090909 4.36363636,7.46181818 4.36363636,5.45454545 C4.36363636,3.44727273 5.99272727,1.81818182 8,1.81818182 C10.0072727,1.81818182 11.6363636,3.44727273 11.6363636,5.45454545 C11.6363636,7.46181818 10.0072727,9.09090909 8,9.09090909 M8,3.27272727 C6.79272727,3.27272727 5.81818182,4.24727273 5.81818182,5.45454545 C5.81818182,6.66181818 6.79272727,7.63636364 8,7.63636364 C9.20727273,7.63636364 10.1818182,6.66181818 10.1818182,5.45454545 C10.1818182,4.24727273 9.20727273,3.27272727 8,3.27272727" id="Shape" fill="#B0B8BC" fill-rule="nonzero" mask="url(#mask-2)"></path>
        </g>
    </g>
</svg>