<?xml version="1.0" encoding="UTF-8"?>
<svg width="13px" height="16px" viewBox="0 0 13 16" version="1.1" xmlns="http://www.w3.org/2000/svg" xmlns:xlink="http://www.w3.org/1999/xlink">
    <!-- Generator: Sketch 50.2 (55047) - http://www.bohemiancoding.com/sketch -->
    <title>Fill 1</title>
    <desc>Created with Sketch.</desc>
    <defs></defs>
    <g id="Page-1" stroke="none" stroke-width="1" fill="none" fill-rule="evenodd">
        <g id="sales-resources" transform="translate(-605.000000, -215.000000)" fill="#0196F5">
            <g id="1" transform="translate(280.000000, 175.000000)">
                <path d="M332.75,45.6 L332.75,41.2 L336.875,45.6 L332.75,45.6 Z M328,49.6 L335,49.6 L335,48 L328,48 L328,49.6 Z M328,52.8 L335,52.8 L335,51.2 L328,51.2 L328,52.8 Z M333.5,40 L326.5,40 C325.675,40 325.0075,40.72 325.0075,41.6 L325,54.4 C325,55.28 325.6675,56 326.4925,56 L336.5,56 C337.325,56 338,55.28 338,54.4 L338,44.8 L333.5,40 Z" id="Fill-1"></path>
            </g>
        </g>
    </g>
</svg>