<?xml version="1.0" encoding="UTF-8"?>
<svg width="16px" height="12px" viewBox="0 0 16 12" version="1.1" xmlns="http://www.w3.org/2000/svg" xmlns:xlink="http://www.w3.org/1999/xlink">
    <!-- Generator: Sketch 49 (51002) - http://www.bohemiancoding.com/sketch -->
    <title>mail</title>
    <desc>Created with Sketch.</desc>
    <defs></defs>
    <g id="Page-1" stroke="none" stroke-width="1" fill="none" fill-rule="evenodd">
        <g id="conversations" transform="translate(-1150.000000, -507.000000)" fill="#B0B8BC">
            <g id="patient-info" transform="translate(1121.000000, 131.000000)">
                <g id="email" transform="translate(29.000000, 373.000000)">
                    <path d="M14,13 L2,13 L2,6.302 L7.36,10.769 C7.545,10.923 7.772,11 8,11 C8.228,11 8.455,10.923 8.64,10.769 L14,6.302 L14,13 Z M12.438,5 L8,8.698 L3.562,5 L12.438,5 Z M14,3 L2,3 C0.895,3 0,3.895 0,5 L0,13 C0,14.104 0.895,15 2,15 L14,15 C15.105,15 16,14.104 16,13 L16,5 C16,3.895 15.105,3 14,3 Z" id="mail"></path>
                </g>
            </g>
        </g>
    </g>
</svg>