<?xml version="1.0" encoding="UTF-8"?>
<svg width="96px" height="128px" viewBox="0 0 96 128" version="1.1" xmlns="http://www.w3.org/2000/svg" xmlns:xlink="http://www.w3.org/1999/xlink">
    <!-- Generator: Sketch 50.2 (55047) - http://www.bohemiancoding.com/sketch -->
    <title>Fill 1</title>
    <desc>Created with Sketch.</desc>
    <defs></defs>
    <g id="Page-1" stroke="none" stroke-width="1" fill="none" fill-rule="evenodd">
        <g id="locations-list" transform="translate(-850.000000, -196.000000)" fill="#E8AB01">
            <g id="2" transform="translate(660.000000, 175.000000)">
                <path d="M236.267016,131.000122 C225.584425,131.000122 216.939004,122.594784 216.939004,112.152032 C216.939004,102.429285 223.248431,95.5972823 233.797697,93.4267869 C244.42179,91.2721345 255.408324,86.1628786 261.525684,77.9547255 C263.872403,85.6987996 265.07233,93.8533301 265.07233,102.200171 C265.07233,118.093413 252.160258,131.000122 236.267016,131.000122 M247.008348,21 C247.008348,21 251.45634,36.8986046 251.45634,49.7999513 C251.45634,62.1572726 243.354945,72.1785997 230.986899,72.1785997 C218.560112,72.1785997 209.210773,62.1572726 209.210773,49.7999513 L209.386753,47.6399366 C197.264152,62.0400341 190,80.7119006 190,100.994638 C190,127.517336 211.482664,149 238.005362,149 C264.52806,149 286.010968,127.517336 286.010968,100.994638 C286.010968,68.6426787 270.475047,39.7786241 247.008348,21" id="Fill-1"></path>
            </g>
        </g>
    </g>
</svg>